<svg width="133" height="41" viewBox="0 0 133 41" fill="none" xmlns="http://www.w3.org/2000/svg">
<path d="M53.1869 23.2036V22.4778C53.7664 22.4282 54.124 22.3289 54.2596 22.1801C54.4076 22.0188 54.3829 21.721 54.1856 21.2868L53.1499 19.1096C52.891 18.5389 52.6259 18.0985 52.3546 17.7884C52.0957 17.4658 51.7998 17.2425 51.4669 17.1184C51.1339 16.982 50.7209 16.9137 50.2277 16.9137H49.007V16.2066H50.2462C50.5791 16.2066 50.875 16.1694 51.1339 16.0949C51.3929 16.0205 51.6333 15.8965 51.8553 15.7228C52.0895 15.5367 52.33 15.2948 52.5766 14.997L53.8157 13.5269C54.2473 13.0183 54.5062 12.5593 54.5925 12.1499C54.6788 11.7405 54.5987 11.4117 54.3521 11.1636C54.1055 10.9155 53.6986 10.7728 53.1314 10.7356V10.0284C53.6123 10.0408 54.0808 10.0533 54.537 10.0657C54.9932 10.0781 55.4679 10.0843 55.9611 10.0843C56.368 10.0843 56.7626 10.0781 57.1448 10.0657C57.5394 10.0533 57.9956 10.0408 58.5135 10.0284V10.7356C58.0572 10.8472 57.6565 10.9837 57.3113 11.145C56.9784 11.2939 56.664 11.4985 56.368 11.7591C56.0721 12.0196 55.7454 12.3546 55.3878 12.764L52.5581 16.1508V15.5739C53.0882 15.6731 53.5445 15.8344 53.9267 16.0577C54.3089 16.281 54.6542 16.5912 54.9624 16.9882C55.283 17.3852 55.5851 17.9062 55.8687 18.5513L56.9784 20.8402C57.151 21.1876 57.3236 21.4729 57.4962 21.6962C57.6688 21.9071 57.8723 22.0746 58.1066 22.1987C58.3532 22.3103 58.6491 22.4034 58.9943 22.4778V23.2036C58.5504 23.1911 58.162 23.1849 57.8291 23.1849C57.4962 23.1725 57.1941 23.1663 56.9229 23.1663C56.6516 23.1539 56.3804 23.1477 56.1091 23.1477C55.6159 23.1477 55.135 23.1539 54.6665 23.1663C54.198 23.1663 53.7048 23.1787 53.1869 23.2036ZM44.9196 23.2036V22.4778C45.4868 22.453 45.906 22.4034 46.1773 22.3289C46.4609 22.2421 46.6458 22.0932 46.7321 21.8823C46.8308 21.659 46.8801 21.3241 46.8801 20.8774V12.3546C46.8801 11.9079 46.8308 11.5792 46.7321 11.3683C46.6458 11.145 46.4609 10.9899 46.1773 10.9031C45.906 10.8162 45.4868 10.7666 44.9196 10.7542V10.0284C45.2402 10.0408 45.6841 10.0533 46.2513 10.0657C46.8308 10.0781 47.5213 10.0843 48.3227 10.0843C49.0378 10.0843 49.6667 10.0781 50.2092 10.0657C50.7517 10.0533 51.1771 10.0408 51.4853 10.0284V10.7542C50.9675 10.7666 50.5791 10.8162 50.3202 10.9031C50.0736 10.9899 49.9071 11.145 49.8208 11.3683C49.7345 11.5792 49.6913 11.9079 49.6913 12.3546V20.8774C49.6913 21.3116 49.7345 21.6404 49.8208 21.8637C49.9071 22.087 50.0736 22.2421 50.3202 22.3289C50.5791 22.4034 50.9613 22.453 51.4669 22.4778V23.2036C51.1586 23.1787 50.7332 23.1663 50.1907 23.1663C49.6605 23.1539 49.0378 23.1477 48.3227 23.1477C47.5213 23.1477 46.8308 23.1539 46.2513 23.1663C45.6841 23.1663 45.2402 23.1787 44.9196 23.2036Z" fill="white"/>
<path d="M59.3497 23.2036V22.4778C60.0155 22.4654 60.4717 22.3662 60.7183 22.1801C60.9773 21.9816 61.1067 21.6342 61.1067 21.138V15.9461C61.1067 15.363 60.9711 14.9536 60.6998 14.7179C60.4409 14.4698 59.9909 14.3333 59.3497 14.3085V13.5827C59.695 13.5952 59.9847 13.6076 60.219 13.62C60.4656 13.6324 60.7307 13.6386 61.0143 13.6386C62.0253 13.6386 62.9069 13.5517 63.659 13.378V20.9891C63.659 21.535 63.8255 21.9195 64.1584 22.1428C64.5037 22.3537 65.1017 22.4654 65.9524 22.4778V23.2036C65.7182 23.1911 65.4037 23.1849 65.0092 23.1849C64.627 23.1725 64.2077 23.1601 63.7515 23.1477C63.3076 23.1353 62.8699 23.1291 62.4384 23.1291C61.8095 23.1291 61.2054 23.1415 60.6259 23.1663C60.0587 23.1787 59.6333 23.1911 59.3497 23.2036ZM66.7662 17.044C66.458 17.044 66.2114 16.9572 66.0264 16.7835C65.8415 16.6098 65.749 16.3865 65.749 16.1136C65.749 15.9275 65.7798 15.7662 65.8415 15.6297C65.9031 15.4809 65.9648 15.3444 66.0264 15.2203C66.0881 15.0839 66.1189 14.9536 66.1189 14.8295C66.1189 14.5566 65.9463 14.4201 65.601 14.4201C65.3421 14.4201 65.077 14.4822 64.8057 14.6062C64.5468 14.7303 64.3064 14.904 64.0844 15.1273C63.8748 15.3382 63.7145 15.5863 63.6036 15.8716L63.5666 15.0901C63.8625 14.5318 64.2632 14.0976 64.7687 13.7874C65.2743 13.4773 65.8045 13.3222 66.3593 13.3222C66.9388 13.3222 67.395 13.4959 67.728 13.8433C68.0732 14.1782 68.2458 14.6435 68.2458 15.2389C68.2458 15.7848 68.1102 16.2252 67.8389 16.5602C67.5677 16.8827 67.2101 17.044 66.7662 17.044Z" fill="white"/>
<path d="M68.7678 23.2036V22.4778C69.4213 22.4654 69.8775 22.3662 70.1364 22.1801C70.3954 21.994 70.5248 21.6466 70.5248 21.138V15.9461C70.5248 15.3878 70.3954 14.9846 70.1364 14.7365C69.8898 14.476 69.4336 14.3333 68.7678 14.3085V13.5827C69.0144 13.5952 69.2672 13.6076 69.5261 13.62C69.785 13.6324 70.044 13.6386 70.3029 13.6386C70.8331 13.6386 71.3263 13.62 71.7825 13.5827C72.251 13.5331 72.6826 13.4649 73.0771 13.378V21.138C73.0771 21.6466 73.2066 21.994 73.4655 22.1801C73.7245 22.3662 74.1807 22.4654 74.8342 22.4778V23.2036C74.6492 23.1911 74.3903 23.1849 74.0574 23.1849C73.7368 23.1725 73.3792 23.1601 72.9847 23.1477C72.6024 23.1353 72.2202 23.1291 71.838 23.1291C71.2585 23.1291 70.6728 23.1415 70.0809 23.1663C69.5014 23.1787 69.0637 23.1911 68.7678 23.2036ZM71.727 11.666C71.3201 11.666 70.9564 11.5358 70.6358 11.2752C70.3275 11.0147 70.1734 10.6611 70.1734 10.2145C70.1734 9.75551 70.3275 9.39574 70.6358 9.13522C70.9564 8.87469 71.3201 8.74443 71.727 8.74443C72.1339 8.74443 72.4915 8.87469 72.7997 9.13522C73.1203 9.39574 73.2806 9.74931 73.2806 10.1959C73.2806 10.6549 73.1203 11.0147 72.7997 11.2752C72.4915 11.5358 72.1339 11.666 71.727 11.666Z" fill="white"/>
<path d="M80.0763 23.4641C79.5461 23.4641 79.1022 23.4083 78.7446 23.2966C78.3871 23.1849 78.0911 23.0733 77.8569 22.9616C77.6226 22.85 77.413 22.7942 77.228 22.7942C76.9321 22.7942 76.7163 22.9865 76.5807 23.371H75.8594C75.8964 23.0361 75.9211 22.6949 75.9334 22.3475C75.9457 21.9878 75.9519 21.5908 75.9519 21.1566C75.9519 20.71 75.9519 20.2013 75.9519 19.6306H76.6547C76.8643 20.6479 77.2342 21.4171 77.7644 21.9381C78.3069 22.4592 78.9974 22.7197 79.8358 22.7197C80.3907 22.7197 80.8222 22.6019 81.1305 22.3662C81.4387 22.118 81.5929 21.7769 81.5929 21.3427C81.5929 20.9209 81.4202 20.5735 81.075 20.3006C80.7421 20.0276 80.1441 19.7609 79.281 19.5004C78.1713 19.1654 77.3575 18.7312 76.8397 18.1978C76.3218 17.6519 76.0629 16.982 76.0629 16.188C76.0629 15.3196 76.3465 14.6248 76.9136 14.1038C77.4931 13.5827 78.2638 13.3222 79.2255 13.3222C79.7187 13.3222 80.1379 13.378 80.4832 13.4897C80.8284 13.589 81.1182 13.7006 81.3524 13.8247C81.599 13.9363 81.8086 13.9921 81.9813 13.9921C82.1046 13.9921 82.2094 13.9487 82.2957 13.8619C82.382 13.7626 82.456 13.62 82.5176 13.4339H83.2389C83.2143 13.6944 83.1958 13.9735 83.1834 14.2713C83.1711 14.5566 83.1588 14.8916 83.1464 15.2762C83.1464 15.6607 83.1526 16.1384 83.1649 16.709H82.4436C82.2587 15.8654 81.9073 15.2141 81.3894 14.7551C80.8839 14.2961 80.2797 14.0666 79.5769 14.0666C79.0837 14.0666 78.6953 14.1782 78.4117 14.4015C78.1405 14.6248 78.0048 14.9474 78.0048 15.3692C78.0048 15.8034 78.1898 16.1632 78.5597 16.4485C78.9296 16.7339 79.5707 17.013 80.4832 17.2859C81.5559 17.5837 82.3327 17.9807 82.8135 18.4769C83.3067 18.9731 83.5533 19.6244 83.5533 20.4308C83.5533 21.3861 83.2451 22.1304 82.6286 22.6639C82.0121 23.1974 81.1613 23.4641 80.0763 23.4641Z" fill="white"/>
<path d="M95.3615 23.4641C94.1039 23.4641 93.0189 23.2656 92.1064 22.8686C91.194 22.4592 90.485 21.8761 89.9795 21.1194C89.4863 20.3626 89.2397 19.4756 89.2397 18.4583C89.2397 17.503 89.4432 16.6408 89.85 15.8716C90.2569 15.1025 90.8056 14.4946 91.4961 14.048C92.1866 13.6014 92.951 13.378 93.7895 13.378C94.4676 13.378 95.004 13.5207 95.3985 13.8061C95.7931 14.0914 95.9904 14.4822 95.9904 14.9784C95.9904 15.3754 95.8301 15.791 95.5095 16.2252C95.1889 16.647 94.6772 17.1308 93.9744 17.6767L93.734 17.6209C94.5724 17.1867 95.3307 16.7525 96.0089 16.3183C96.687 15.8716 97.2665 15.4436 97.7474 15.0342C98.2283 14.6124 98.5982 14.2217 98.8571 13.8619C99.116 13.5021 99.2455 13.1796 99.2455 12.8942C99.2455 12.6337 99.1715 12.4042 99.0236 12.2057C98.8756 11.9948 98.7276 11.7901 98.5797 11.5916C98.4441 11.3807 98.3762 11.1512 98.3762 10.9031C98.3762 10.6177 98.4749 10.3882 98.6722 10.2145C98.8694 10.0409 99.1222 9.95401 99.4305 9.95401C99.8373 9.95401 100.164 10.0967 100.411 10.382C100.67 10.6674 100.799 11.0395 100.799 11.4985C100.799 12.0568 100.596 12.6523 100.189 13.285C99.7942 13.9177 99.227 14.5628 98.4872 15.2203C97.7474 15.8654 96.872 16.4981 95.8609 17.1184C94.8622 17.7387 93.7587 18.3094 92.5503 18.8305L92.2729 18.1605C92.988 17.8504 93.5429 17.4348 93.9374 16.9137C94.3443 16.3927 94.5478 15.8282 94.5478 15.2203C94.5478 14.8357 94.4676 14.5504 94.3073 14.3643C94.147 14.1658 93.9066 14.0666 93.586 14.0666C93.1298 14.0666 92.7044 14.2527 92.3099 14.6248C91.9153 14.997 91.6009 15.4871 91.3666 16.0949C91.1324 16.7028 91.0152 17.3666 91.0152 18.0861C91.0152 19.4011 91.4591 20.4432 92.3469 21.2124C93.247 21.9692 94.4738 22.3475 96.0274 22.3475C97.6919 22.3475 99.0914 21.8885 100.226 20.9705C101.372 20.0524 102.254 18.6816 102.871 16.8579L103.536 16.9882C102.834 19.1344 101.798 20.7534 100.429 21.8451C99.0605 22.9244 97.3713 23.4641 95.3615 23.4641ZM98.8756 20.282C98.518 20.282 98.2283 20.1455 98.0063 19.8726C97.7967 19.5996 97.6919 19.2274 97.6919 18.756C97.6919 18.297 97.7844 17.8814 97.9693 17.5092C98.1666 17.1246 98.4379 16.7897 98.7831 16.5043C99.1407 16.219 99.5537 16.0019 100.022 15.853C100.503 15.6918 101.027 15.6111 101.594 15.6111C102.075 15.6111 102.531 15.6731 102.963 15.7972C103.395 15.9089 103.801 16.0453 104.184 16.2066C104.566 16.3679 104.917 16.5105 105.238 16.6346C105.558 16.7587 105.854 16.8207 106.126 16.8207C106.434 16.8207 106.668 16.7463 106.828 16.5974C106.989 16.4361 107.112 16.2438 107.198 16.0205C107.297 15.7972 107.383 15.5739 107.457 15.3506C107.544 15.1273 107.655 14.9412 107.79 14.7923C107.926 14.631 108.135 14.5504 108.419 14.5504C108.703 14.5504 108.925 14.6435 109.085 14.8295C109.257 15.0032 109.344 15.2513 109.344 15.5739C109.344 16.157 109.06 16.6284 108.493 16.9882C107.938 17.3355 107.192 17.5092 106.255 17.5092C105.836 17.5092 105.429 17.4782 105.034 17.4162C104.64 17.3542 104.233 17.2859 103.814 17.2115C103.407 17.137 102.975 17.0688 102.519 17.0068C102.063 16.9448 101.576 16.9137 101.058 16.9137C100.38 16.9137 99.862 16.9758 99.5044 17.0998C99.1469 17.2239 98.9681 17.4038 98.9681 17.6395C98.9681 17.776 99.0112 17.9124 99.0975 18.0489C99.1962 18.1729 99.3071 18.3032 99.4305 18.4397C99.5537 18.5761 99.6586 18.725 99.7449 18.8863C99.8435 19.0352 99.8928 19.2026 99.8928 19.3887C99.8928 19.6368 99.8003 19.8477 99.6154 20.0214C99.4304 20.1951 99.1839 20.282 98.8756 20.282Z" fill="#017FC1"/>
<path d="M114.743 23.2036V22.4778C115.323 22.453 115.748 22.4034 116.019 22.3289C116.303 22.2421 116.488 22.087 116.574 21.8637C116.66 21.6404 116.704 21.3116 116.704 20.8774V12.3546C116.704 11.8955 116.654 11.5606 116.556 11.3497C116.469 11.1264 116.284 10.9775 116.001 10.9031C115.73 10.8162 115.31 10.7666 114.743 10.7542V10.0284C115.187 10.0408 115.699 10.0533 116.278 10.0657C116.87 10.0781 117.499 10.0843 118.165 10.0843C119.04 10.0843 119.798 10.0781 120.44 10.0657C121.081 10.0533 121.599 10.0408 121.993 10.0284V10.7542C121.266 10.7666 120.723 10.8162 120.366 10.9031C120.02 10.9775 119.792 11.1264 119.681 11.3497C119.57 11.573 119.515 11.9079 119.515 12.3546V21.0821C119.515 21.4543 119.54 21.7397 119.589 21.9381C119.651 22.1242 119.774 22.2545 119.959 22.3289C120.156 22.391 120.452 22.422 120.847 22.422H121.346C121.876 22.422 122.351 22.3475 122.77 22.1987C123.202 22.0374 123.578 21.7893 123.898 21.4543C124.231 21.1194 124.527 20.6976 124.786 20.1889C125.057 19.6679 125.304 19.0476 125.526 18.328H126.284C126.185 19.1716 126.111 20.0028 126.062 20.8216C126.025 21.628 126.013 22.422 126.025 23.2036C125.495 23.1787 124.854 23.1663 124.102 23.1663C123.35 23.1539 122.437 23.1477 121.364 23.1477C119.897 23.1477 118.602 23.1539 117.48 23.1663C116.358 23.1663 115.446 23.1787 114.743 23.2036Z" fill="white"/>
<path d="M126.934 23.2036V22.4778C127.587 22.4654 128.043 22.3662 128.302 22.1801C128.561 21.994 128.691 21.6466 128.691 21.138V15.9461C128.691 15.3878 128.561 14.9846 128.302 14.7365C128.056 14.476 127.599 14.3333 126.934 14.3085V13.5827C127.18 13.5952 127.433 13.6076 127.692 13.62C127.951 13.6324 128.21 13.6386 128.469 13.6386C128.999 13.6386 129.492 13.62 129.948 13.5827C130.417 13.5331 130.848 13.4649 131.243 13.378V21.138C131.243 21.6466 131.372 21.994 131.631 22.1801C131.89 22.3662 132.347 22.4654 133 22.4778V23.2036C132.815 23.1911 132.556 23.1849 132.223 23.1849C131.903 23.1725 131.545 23.1601 131.15 23.1477C130.768 23.1353 130.386 23.1291 130.004 23.1291C129.424 23.1291 128.839 23.1415 128.247 23.1663C127.667 23.1787 127.23 23.1911 126.934 23.2036ZM129.893 11.666C129.486 11.666 129.122 11.5358 128.802 11.2752C128.493 11.0147 128.339 10.6611 128.339 10.2145C128.339 9.75551 128.493 9.39574 128.802 9.13522C129.122 8.87469 129.486 8.74443 129.893 8.74443C130.3 8.74443 130.657 8.87469 130.966 9.13522C131.286 9.39574 131.446 9.74931 131.446 10.1959C131.446 10.6549 131.286 11.0147 130.966 11.2752C130.657 11.5358 130.3 11.666 129.893 11.666Z" fill="white"/>
<path d="M47.2724 32.7778C46.9418 32.7778 46.6542 32.7016 46.4097 32.5491C46.1652 32.3932 45.974 32.1749 45.8363 31.8942C45.702 31.6135 45.6348 31.286 45.6348 30.9118C45.6348 30.5272 45.7054 30.1876 45.8466 29.893C45.9912 29.5985 46.1893 29.368 46.4407 29.2017C46.6921 29.0354 46.9814 28.9522 47.3086 28.9522C47.4636 28.9522 47.5996 28.9695 47.7167 29.0042C47.8338 29.0354 47.9354 29.0752 48.0215 29.1237C48.1076 29.1688 48.1816 29.2086 48.2436 29.2433C48.3056 29.2745 48.3624 29.2901 48.4141 29.2901C48.4658 29.2901 48.5054 29.2658 48.5329 29.2173C48.5605 29.1688 48.5811 29.0891 48.5949 28.9782H48.8016C48.7981 29.0718 48.7947 29.1757 48.7912 29.2901C48.7878 29.4044 48.7843 29.5448 48.7809 29.7111C48.7809 29.8774 48.7809 30.0853 48.7809 30.3348H48.5742C48.5329 30.0923 48.4554 29.8844 48.3418 29.7111C48.2316 29.5344 48.0938 29.3975 47.9285 29.3005C47.7632 29.2034 47.5772 29.1549 47.3706 29.1549C47.0021 29.1549 46.7128 29.3057 46.5027 29.6071C46.296 29.9086 46.1927 30.3244 46.1927 30.8546C46.1927 31.3883 46.2978 31.8093 46.5079 32.1177C46.7179 32.4226 47.0055 32.5751 47.3706 32.5751C47.5807 32.5751 47.7684 32.5266 47.9337 32.4296C48.1024 32.3291 48.2419 32.1905 48.3521 32.0137C48.4658 31.837 48.5398 31.6308 48.5742 31.3952H48.7809C48.7809 31.6343 48.7809 31.837 48.7809 32.0033C48.7843 32.1697 48.7878 32.3117 48.7912 32.4296C48.7947 32.5474 48.7981 32.6548 48.8016 32.7518H48.5949C48.5811 32.6375 48.5605 32.5578 48.5329 32.5127C48.5054 32.4677 48.4675 32.4452 48.4193 32.4452C48.3642 32.4452 48.3039 32.4625 48.2385 32.4971C48.173 32.5283 48.0955 32.5664 48.006 32.6115C47.9199 32.6565 47.8166 32.6946 47.696 32.7258C47.5755 32.7605 47.4343 32.7778 47.2724 32.7778Z" fill="white"/>
<path d="M49.6372 32.705V32.5023C49.8541 32.4989 50.004 32.4711 50.0866 32.4192C50.1727 32.3672 50.2158 32.2702 50.2158 32.1281V29.3473C50.2158 29.1879 50.1727 29.0735 50.0866 29.0042C50.004 28.9349 49.8541 28.8968 49.6372 28.8898V28.6871C49.7061 28.6906 49.7767 28.6941 49.849 28.6975C49.9247 28.701 50.0005 28.7027 50.0763 28.7027C50.1968 28.7027 50.3105 28.6975 50.4172 28.6871C50.5274 28.6733 50.6273 28.6542 50.7169 28.63V32.1281C50.7169 32.2702 50.7599 32.3672 50.846 32.4192C50.9321 32.4711 51.0819 32.4989 51.2955 32.5023V32.705C51.2438 32.7016 51.1715 32.6998 51.0785 32.6998C50.9889 32.6964 50.8908 32.6929 50.784 32.6895C50.6773 32.686 50.5722 32.6843 50.4689 32.6843C50.3105 32.6843 50.1521 32.6877 49.9936 32.6946C49.8352 32.6981 49.7164 32.7016 49.6372 32.705Z" fill="white"/>
<path d="M53.1072 32.7778C52.8593 32.7778 52.6423 32.7224 52.4563 32.6115C52.2738 32.4971 52.1326 32.3343 52.0327 32.1229C51.9328 31.9115 51.8829 31.662 51.8829 31.3744C51.8829 31.0833 51.9328 30.8321 52.0327 30.6207C52.1326 30.4059 52.2772 30.2413 52.4667 30.1269C52.6561 30.0126 52.8817 29.9554 53.1434 29.9554C53.3673 29.9554 53.5601 29.9987 53.722 30.0853C53.8873 30.172 54.013 30.3089 54.0991 30.496C54.1887 30.6831 54.23 30.9274 54.2231 31.2289H52.2135L52.2084 31.0313H53.7065C53.7099 30.8616 53.691 30.7108 53.6497 30.5791C53.6083 30.4475 53.5429 30.3435 53.4534 30.2673C53.3673 30.191 53.2553 30.1529 53.1176 30.1529C52.9419 30.1529 52.787 30.2274 52.6526 30.3764C52.5218 30.5254 52.4443 30.7593 52.4202 31.0781L52.4253 31.0937C52.4219 31.1284 52.4202 31.1665 52.4202 31.2081C52.4202 31.2497 52.4202 31.293 52.4202 31.338C52.4202 31.7053 52.4908 31.9895 52.632 32.1905C52.7732 32.388 52.9764 32.4867 53.2416 32.4867C53.4138 32.4867 53.567 32.4452 53.7013 32.362C53.8391 32.2754 53.9527 32.1419 54.0423 31.9618L54.2231 32.0657C54.1336 32.291 53.9906 32.4659 53.7943 32.5907C53.6015 32.7154 53.3724 32.7778 53.1072 32.7778Z" fill="white"/>
<path d="M55.8104 32.7778C55.5762 32.7778 55.3902 32.7172 55.2525 32.5959C55.1182 32.4711 55.051 32.3048 55.051 32.0969C55.051 31.934 55.0889 31.8024 55.1647 31.7019C55.2404 31.6014 55.3386 31.5217 55.4591 31.4628C55.5831 31.4039 55.7123 31.3553 55.8466 31.3172C55.9843 31.2756 56.1135 31.2393 56.234 31.2081C56.358 31.1769 56.4579 31.1388 56.5337 31.0937C56.6129 31.0452 56.6525 30.9828 56.6525 30.9066V30.6571C56.6525 30.4942 56.6043 30.3712 56.5078 30.2881C56.4114 30.2049 56.2685 30.1633 56.079 30.1633C55.9413 30.1633 55.8259 30.1824 55.7329 30.2205C55.6399 30.2586 55.5934 30.3054 55.5934 30.3608C55.5934 30.3955 55.6055 30.4319 55.6296 30.47C55.6537 30.5046 55.6761 30.5445 55.6968 30.5895C55.7209 30.6311 55.7329 30.6779 55.7329 30.7299C55.7329 30.7957 55.7071 30.8494 55.6554 30.891C55.6072 30.9326 55.5435 30.9534 55.4643 30.9534C55.3713 30.9534 55.2955 30.9239 55.237 30.865C55.1784 30.8026 55.1492 30.7212 55.1492 30.6207C55.1492 30.4925 55.1974 30.3782 55.2938 30.2777C55.3902 30.1772 55.5194 30.0992 55.6813 30.0438C55.8466 29.9849 56.0326 29.9554 56.2392 29.9554C56.4527 29.9554 56.6266 29.9883 56.761 30.0542C56.8953 30.12 56.9934 30.2222 57.0554 30.3608C57.1209 30.4994 57.1536 30.6796 57.1536 30.9014V32.2736C57.1536 32.3568 57.1673 32.4174 57.1949 32.4555C57.2225 32.4937 57.2655 32.5127 57.3241 32.5127C57.3826 32.5127 57.4411 32.4989 57.4997 32.4711C57.5582 32.44 57.6151 32.4036 57.6702 32.362L57.7683 32.5283C57.6788 32.608 57.5841 32.6687 57.4842 32.7102C57.3878 32.7553 57.2758 32.7778 57.1484 32.7778C56.8178 32.7778 56.6525 32.6253 56.6525 32.3204C56.5526 32.4694 56.4321 32.5838 56.2908 32.6635C56.1496 32.7397 55.9895 32.7778 55.8104 32.7778ZM56.0067 32.4607C56.1341 32.4607 56.253 32.4296 56.3632 32.3672C56.4734 32.3048 56.5698 32.2147 56.6525 32.0969V31.1717C56.618 31.2306 56.5578 31.2791 56.4717 31.3172C56.389 31.3519 56.296 31.3883 56.1927 31.4264C56.0894 31.461 55.9895 31.5026 55.8931 31.5511C55.8001 31.5996 55.7226 31.662 55.6606 31.7383C55.5986 31.8145 55.5676 31.9132 55.5676 32.0345C55.5676 32.1662 55.6055 32.2702 55.6813 32.3464C55.7605 32.4226 55.869 32.4607 56.0067 32.4607Z" fill="white"/>
<path d="M60.0411 32.705V32.5023C60.1892 32.4989 60.2908 32.4711 60.3459 32.4192C60.4045 32.3637 60.4338 32.2667 60.4338 32.1281V30.9118C60.4338 30.6831 60.389 30.5133 60.2994 30.4024C60.2133 30.2881 60.0842 30.2309 59.912 30.2309C59.7673 30.2309 59.633 30.2707 59.509 30.3504C59.3885 30.4267 59.2835 30.541 59.1939 30.6935L59.1991 30.4648C59.2852 30.3054 59.4074 30.1806 59.5659 30.0905C59.7243 30.0004 59.8999 29.9554 60.0928 29.9554C60.3614 29.9554 60.5681 30.0403 60.7127 30.2101C60.8608 30.3799 60.9349 30.6242 60.9349 30.943V32.1281C60.9349 32.2667 60.9762 32.3637 61.0588 32.4192C61.1415 32.4711 61.293 32.4989 61.5135 32.5023V32.705C61.4618 32.7016 61.3895 32.6998 61.2965 32.6998C61.2069 32.6964 61.1088 32.6929 61.002 32.6895C60.8952 32.686 60.7919 32.6843 60.6921 32.6843C60.5612 32.6843 60.4338 32.6877 60.3098 32.6946C60.1892 32.6981 60.0997 32.7016 60.0411 32.705ZM58.1452 32.705V32.5023C58.3622 32.4989 58.512 32.4711 58.5947 32.4192C58.6808 32.3637 58.7238 32.2667 58.7238 32.1281V30.6883C58.7238 30.522 58.6808 30.4059 58.5947 30.34C58.5086 30.2742 58.3587 30.2378 58.1452 30.2309V30.0282C58.2141 30.0316 58.2847 30.0351 58.357 30.0386C58.4293 30.042 58.5051 30.0438 58.5843 30.0438C58.7014 30.0438 58.8134 30.0386 58.9201 30.0282C59.0269 30.0143 59.1285 29.9952 59.2249 29.971V32.1281C59.2249 32.2667 59.2525 32.3637 59.3076 32.4192C59.3661 32.4711 59.4694 32.4989 59.6175 32.5023V32.705C59.5383 32.7016 59.4402 32.6981 59.3231 32.6946C59.2094 32.6877 59.0906 32.6843 58.9666 32.6843C58.8254 32.6843 58.679 32.6877 58.5275 32.6946C58.376 32.6981 58.2485 32.7016 58.1452 32.705Z" fill="white"/>
<path d="M61.9392 32.705V32.5023C62.1527 32.4989 62.3025 32.4711 62.3886 32.4192C62.4747 32.3672 62.5178 32.2702 62.5178 32.1281V30.6883C62.5178 30.5289 62.4747 30.4145 62.3886 30.3452C62.306 30.2759 62.1561 30.2378 61.9392 30.2309V30.0282C62.0081 30.0316 62.0787 30.0351 62.151 30.0386C62.2267 30.042 62.3008 30.0438 62.3731 30.0438C62.4971 30.0438 62.6125 30.0386 62.7192 30.0282C62.826 30.0143 62.9259 29.9952 63.0189 29.971V32.1281C63.0189 32.2702 63.0602 32.3672 63.1429 32.4192C63.229 32.4711 63.3805 32.4989 63.5975 32.5023V32.705C63.5458 32.7016 63.4735 32.6998 63.3805 32.6998C63.2909 32.6964 63.1928 32.6929 63.086 32.6895C62.9793 32.686 62.8725 32.6843 62.7657 32.6843C62.6108 32.6843 62.454 32.6877 62.2956 32.6946C62.1372 32.6981 62.0184 32.7016 61.9392 32.705ZM62.7502 29.4148C62.6538 29.4148 62.5712 29.3819 62.5023 29.3161C62.4334 29.2468 62.399 29.1619 62.399 29.0614C62.399 28.9643 62.4334 28.8829 62.5023 28.8171C62.5712 28.7478 62.6538 28.7131 62.7502 28.7131C62.8467 28.7131 62.9293 28.7478 62.9982 28.8171C63.0671 28.8829 63.1015 28.9643 63.1015 29.0614C63.1015 29.1619 63.0671 29.2468 62.9982 29.3161C62.9293 29.3819 62.8467 29.4148 62.7502 29.4148Z" fill="white"/>
<path d="M65.9525 32.705V32.5023C66.1006 32.4989 66.2022 32.4711 66.2573 32.4192C66.3159 32.3637 66.3451 32.2667 66.3451 32.1281V30.9118C66.3451 30.6831 66.3004 30.5133 66.2108 30.4024C66.1247 30.2881 65.9956 30.2309 65.8234 30.2309C65.6787 30.2309 65.5444 30.2707 65.4204 30.3504C65.2999 30.4267 65.1948 30.541 65.1053 30.6935L65.1105 30.4648C65.1966 30.3054 65.3188 30.1806 65.4773 30.0905C65.6357 30.0004 65.8113 29.9554 66.0042 29.9554C66.2728 29.9554 66.4795 30.0403 66.6241 30.2101C66.7722 30.3799 66.8462 30.6242 66.8462 30.943V32.1281C66.8462 32.2667 66.8876 32.3637 66.9702 32.4192C67.0529 32.4711 67.2044 32.4989 67.4248 32.5023V32.705C67.3732 32.7016 67.3008 32.6998 67.2079 32.6998C67.1183 32.6964 67.0202 32.6929 66.9134 32.6895C66.8066 32.686 66.7033 32.6843 66.6034 32.6843C66.4726 32.6843 66.3451 32.6877 66.2212 32.6946C66.1006 32.6981 66.0111 32.7016 65.9525 32.705ZM64.0566 32.705V32.5023C64.2736 32.4989 64.4234 32.4711 64.506 32.4192C64.5921 32.3637 64.6352 32.2667 64.6352 32.1281V30.6883C64.6352 30.522 64.5921 30.4059 64.506 30.34C64.4199 30.2742 64.2701 30.2378 64.0566 30.2309V30.0282C64.1255 30.0316 64.1961 30.0351 64.2684 30.0386C64.3407 30.042 64.4165 30.0438 64.4957 30.0438C64.6128 30.0438 64.7247 30.0386 64.8315 30.0282C64.9383 30.0143 65.0399 29.9952 65.1363 29.971V32.1281C65.1363 32.2667 65.1638 32.3637 65.219 32.4192C65.2775 32.4711 65.3808 32.4989 65.5289 32.5023V32.705C65.4497 32.7016 65.3515 32.6981 65.2345 32.6946C65.1208 32.6877 65.002 32.6843 64.878 32.6843C64.7368 32.6843 64.5904 32.6877 64.4389 32.6946C64.2874 32.6981 64.1599 32.7016 64.0566 32.705Z" fill="white"/>
<path d="M68.9716 33.9473C68.6306 33.9473 68.3603 33.8849 68.1605 33.7602C67.9642 33.6389 67.8661 33.4743 67.8661 33.2664C67.8661 33.1001 67.9246 32.9528 68.0417 32.8246C68.1622 32.6998 68.3379 32.5942 68.5686 32.5075L68.7133 32.6011C68.5996 32.6496 68.5084 32.7276 68.4395 32.835C68.3706 32.9424 68.3362 33.0602 68.3362 33.1884C68.3362 33.3652 68.3999 33.502 68.5273 33.5991C68.6547 33.6996 68.8321 33.7498 69.0594 33.7498C69.2385 33.7498 69.3969 33.7186 69.5347 33.6562C69.6759 33.5973 69.7861 33.5142 69.8653 33.4067C69.948 33.2993 69.9893 33.178 69.9893 33.0429C69.9893 32.9147 69.9497 32.8177 69.8705 32.7518C69.7947 32.6895 69.6776 32.6583 69.5192 32.6583H68.9922C68.7822 32.6583 68.6151 32.6184 68.4911 32.5387C68.3672 32.459 68.3052 32.3516 68.3052 32.2164C68.3052 32.1125 68.3413 32.0172 68.4137 31.9306C68.4894 31.8405 68.5996 31.7556 68.7443 31.6759L68.9199 31.7019C68.8442 31.7469 68.7891 31.7937 68.7546 31.8422C68.7202 31.8907 68.7029 31.9427 68.7029 31.9981C68.7029 32.064 68.7305 32.1142 68.7856 32.1489C68.8407 32.1835 68.9199 32.2009 69.0232 32.2009H69.607C69.8825 32.2009 70.0909 32.258 70.2321 32.3724C70.3767 32.4867 70.4491 32.6531 70.4491 32.8714C70.4491 33.0793 70.3854 33.2647 70.2579 33.4275C70.1339 33.5904 69.96 33.7169 69.7362 33.807C69.5157 33.9005 69.2609 33.9473 68.9716 33.9473ZM69.0284 31.7279C68.715 31.7279 68.4688 31.6499 68.2897 31.494C68.114 31.3346 68.0262 31.1162 68.0262 30.839C68.0262 30.5618 68.114 30.3452 68.2897 30.1893C68.4688 30.0334 68.715 29.9554 69.0284 29.9554C69.3384 29.9554 69.5812 30.0334 69.7568 30.1893C69.9359 30.3452 70.0255 30.5618 70.0255 30.839C70.0255 31.1162 69.9359 31.3346 69.7568 31.494C69.5812 31.6499 69.3384 31.7279 69.0284 31.7279ZM69.0284 31.5355C69.1937 31.5355 69.316 31.4784 69.3952 31.364C69.4779 31.2497 69.5192 31.0747 69.5192 30.839C69.5192 30.6034 69.4779 30.4301 69.3952 30.3192C69.316 30.2049 69.1937 30.1477 69.0284 30.1477C68.8631 30.1477 68.7391 30.2049 68.6565 30.3192C68.5772 30.4301 68.5376 30.6034 68.5376 30.839C68.5376 31.0747 68.5772 31.2497 68.6565 31.364C68.7391 31.4784 68.8631 31.5355 69.0284 31.5355ZM70.5007 30.6467C70.4318 30.6467 70.3819 30.6259 70.3509 30.5843C70.3199 30.5393 70.2958 30.489 70.2786 30.4336C70.2614 30.3747 70.2441 30.3227 70.2269 30.2777C70.2097 30.2326 70.1839 30.2101 70.1494 30.2101C70.1288 30.2101 70.0978 30.2222 70.0564 30.2465C70.0151 30.2673 69.9738 30.2985 69.9325 30.34C69.8911 30.3782 69.8533 30.4249 69.8188 30.4804L69.731 30.3452C69.8033 30.2344 69.8997 30.1425 70.0203 30.0698C70.1443 29.9935 70.2665 29.9554 70.3871 29.9554C70.4973 29.9554 70.5817 29.9883 70.6402 30.0542C70.7022 30.1165 70.7332 30.2066 70.7332 30.3244C70.7332 30.4249 70.7108 30.5046 70.666 30.5635C70.6247 30.619 70.5696 30.6467 70.5007 30.6467Z" fill="white"/>
<path d="M74.27 32.7778C74.0737 32.7778 73.905 32.757 73.7638 32.7154C73.626 32.6739 73.5124 32.6323 73.4228 32.5907C73.3333 32.5491 73.2627 32.5283 73.211 32.5283C73.1662 32.5283 73.1301 32.5474 73.1025 32.5855C73.0784 32.6236 73.0595 32.6791 73.0457 32.7518H72.8391C72.8459 32.6756 72.8511 32.582 72.8546 32.4711C72.858 32.3603 72.8597 32.2182 72.8597 32.0449C72.8632 31.8717 72.8649 31.6551 72.8649 31.3952H73.0715C73.0991 31.759 73.2127 32.0467 73.4125 32.258C73.6122 32.4659 73.8723 32.5699 74.1925 32.5699C74.4233 32.5699 74.6076 32.511 74.7453 32.3932C74.8865 32.2719 74.9571 32.109 74.9571 31.9046C74.9571 31.7764 74.9261 31.6637 74.8641 31.5667C74.8056 31.4662 74.7091 31.3744 74.5748 31.2912C74.444 31.2081 74.2683 31.1266 74.0479 31.0469C73.7827 30.9499 73.5657 30.846 73.397 30.7351C73.2317 30.6242 73.1094 30.5012 73.0302 30.366C72.9544 30.2274 72.9165 30.0715 72.9165 29.8982C72.9165 29.7042 72.9596 29.5361 73.0457 29.394C73.1352 29.252 73.2609 29.1428 73.4228 29.0666C73.5847 28.9903 73.7741 28.9522 73.9911 28.9522C74.1702 28.9522 74.32 28.973 74.4405 29.0146C74.5611 29.0527 74.6609 29.0926 74.7401 29.1341C74.8194 29.1757 74.8865 29.1965 74.9416 29.1965C74.9829 29.1965 75.0174 29.1792 75.0449 29.1445C75.0725 29.1064 75.0932 29.051 75.1069 28.9782H75.3136C75.3067 29.0544 75.3015 29.1411 75.2981 29.2381C75.2946 29.3317 75.2912 29.4495 75.2877 29.5916C75.2877 29.7336 75.2877 29.9155 75.2877 30.1373H75.0759C75.0484 29.8393 74.9433 29.6019 74.7608 29.4252C74.5783 29.245 74.3493 29.1549 74.0737 29.1549C73.8568 29.1549 73.688 29.2086 73.5675 29.3161C73.4504 29.42 73.3918 29.5638 73.3918 29.7475C73.3918 29.8688 73.4228 29.9779 73.4848 30.0749C73.5468 30.1685 73.6484 30.2586 73.7896 30.3452C73.9342 30.4284 74.1271 30.515 74.3682 30.6051C74.7608 30.7507 75.0432 30.9135 75.2154 31.0937C75.3876 31.2739 75.4737 31.4957 75.4737 31.759C75.4737 32.0709 75.3652 32.3187 75.1483 32.5023C74.9313 32.686 74.6385 32.7778 74.27 32.7778Z" fill="white"/>
<path d="M77.5097 32.7778C77.2618 32.7778 77.0448 32.7224 76.8588 32.6115C76.6763 32.4971 76.5351 32.3343 76.4352 32.1229C76.3353 31.9115 76.2854 31.662 76.2854 31.3744C76.2854 31.0833 76.3353 30.8321 76.4352 30.6207C76.5351 30.4059 76.6797 30.2413 76.8692 30.1269C77.0586 30.0126 77.2842 29.9554 77.5459 29.9554C77.7698 29.9554 77.9626 29.9987 78.1245 30.0853C78.2898 30.172 78.4155 30.3089 78.5016 30.496C78.5912 30.6831 78.6325 30.9274 78.6256 31.2289H76.616L76.6109 31.0313H78.109C78.1124 30.8616 78.0935 30.7108 78.0522 30.5791C78.0108 30.4475 77.9454 30.3435 77.8559 30.2673C77.7698 30.191 77.6578 30.1529 77.5201 30.1529C77.3444 30.1529 77.1894 30.2274 77.0551 30.3764C76.9243 30.5254 76.8468 30.7593 76.8227 31.0781L76.8278 31.0937C76.8244 31.1284 76.8227 31.1665 76.8227 31.2081C76.8227 31.2497 76.8227 31.293 76.8227 31.338C76.8227 31.7053 76.8933 31.9895 77.0345 32.1905C77.1757 32.388 77.3789 32.4867 77.6441 32.4867C77.8163 32.4867 77.9695 32.4452 78.1038 32.362C78.2416 32.2754 78.3552 32.1419 78.4448 31.9618L78.6256 32.0657C78.536 32.291 78.3931 32.4659 78.1968 32.5907C78.004 32.7154 77.7749 32.7778 77.5097 32.7778Z" fill="white"/>
<path d="M79.298 32.705V32.5023C79.5184 32.4989 79.6699 32.4711 79.7526 32.4192C79.8353 32.3637 79.8766 32.2667 79.8766 32.1281V30.6883C79.8766 30.522 79.8318 30.4059 79.7423 30.34C79.6562 30.2742 79.5081 30.2378 79.298 30.2309V30.0282C79.3703 30.0316 79.4426 30.0351 79.515 30.0386C79.5873 30.042 79.6613 30.0438 79.7371 30.0438C79.9679 30.0438 80.1814 30.0195 80.3777 29.971V32.1021C80.3777 32.2476 80.4311 32.3499 80.5378 32.4088C80.6446 32.4677 80.8306 32.4989 81.0958 32.5023V32.705C81.0338 32.7016 80.9494 32.6998 80.8426 32.6998C80.7359 32.6964 80.6205 32.6929 80.4965 32.6895C80.3725 32.686 80.252 32.6843 80.1349 32.6843C79.9661 32.6843 79.8043 32.6877 79.6493 32.6946C79.4943 32.6981 79.3772 32.7016 79.298 32.705ZM81.3541 30.8702C81.2783 30.8702 81.218 30.8494 81.1732 30.8078C81.1285 30.7628 81.1061 30.7074 81.1061 30.6415C81.1061 30.5965 81.1147 30.5566 81.1319 30.522C81.1491 30.4838 81.1664 30.4492 81.1836 30.418C81.2008 30.3834 81.2094 30.3504 81.2094 30.3192C81.2094 30.2499 81.156 30.2153 81.0493 30.2153C80.9666 30.2153 80.8788 30.2361 80.7858 30.2777C80.6928 30.3192 80.6084 30.3764 80.5327 30.4492C80.4569 30.5185 80.3984 30.5982 80.357 30.6883L80.3467 30.47C80.4397 30.3071 80.5585 30.1806 80.7031 30.0905C80.8512 30.0004 81.0062 29.9554 81.1681 29.9554C81.3265 29.9554 81.4539 30.0022 81.5504 30.0957C81.6468 30.1858 81.695 30.3071 81.695 30.4596C81.695 30.5809 81.6623 30.6796 81.5969 30.7559C81.5349 30.8321 81.4539 30.8702 81.3541 30.8702Z" fill="white"/>
<path d="M83.5517 32.7518L82.6011 30.5687C82.5529 30.4544 82.4858 30.3712 82.3997 30.3192C82.3136 30.2638 82.2034 30.2343 82.0691 30.2309V30.0282C82.1724 30.0351 82.2757 30.0403 82.379 30.0438C82.4823 30.0472 82.6046 30.049 82.7458 30.049C82.8836 30.049 83.0093 30.0472 83.1229 30.0438C83.2366 30.0403 83.3485 30.0351 83.4587 30.0282V30.2309C83.2865 30.2378 83.178 30.2725 83.1332 30.3348C83.0919 30.3937 83.104 30.496 83.1694 30.6415L83.8307 32.1697L83.7532 32.1957L84.2439 30.9586C84.3059 30.8026 84.3369 30.6727 84.3369 30.5687C84.3369 30.4613 84.3042 30.3799 84.2388 30.3244C84.1768 30.269 84.0821 30.2378 83.9546 30.2309V30.0282C84.0511 30.0316 84.132 30.0351 84.1974 30.0386C84.2663 30.0386 84.33 30.0403 84.3886 30.0438C84.4506 30.0438 84.516 30.0438 84.5849 30.0438C84.6985 30.0438 84.8019 30.042 84.8948 30.0386C84.9878 30.0351 85.0705 30.0316 85.1428 30.0282V30.2309C84.9982 30.2413 84.8776 30.2898 84.7812 30.3764C84.6848 30.4631 84.5969 30.6051 84.5177 30.8026L83.7428 32.7518H83.5517Z" fill="white"/>
<path d="M85.5785 32.705V32.5023C85.792 32.4989 85.9418 32.4711 86.0279 32.4192C86.114 32.3672 86.1571 32.2702 86.1571 32.1281V30.6883C86.1571 30.5289 86.114 30.4145 86.0279 30.3452C85.9453 30.2759 85.7954 30.2378 85.5785 30.2309V30.0282C85.6474 30.0316 85.7179 30.0351 85.7903 30.0386C85.866 30.042 85.9401 30.0438 86.0124 30.0438C86.1364 30.0438 86.2518 30.0386 86.3585 30.0282C86.4653 30.0143 86.5652 29.9952 86.6582 29.971V32.1281C86.6582 32.2702 86.6995 32.3672 86.7822 32.4192C86.8682 32.4711 87.0198 32.4989 87.2368 32.5023V32.705C87.1851 32.7016 87.1128 32.6998 87.0198 32.6998C86.9302 32.6964 86.8321 32.6929 86.7253 32.6895C86.6186 32.686 86.5118 32.6843 86.405 32.6843C86.2501 32.6843 86.0933 32.6877 85.9349 32.6946C85.7765 32.6981 85.6577 32.7016 85.5785 32.705ZM86.3895 29.4148C86.2931 29.4148 86.2104 29.3819 86.1416 29.3161C86.0727 29.2468 86.0383 29.1619 86.0383 29.0614C86.0383 28.9643 86.0727 28.8829 86.1416 28.8171C86.2104 28.7478 86.2931 28.7131 86.3895 28.7131C86.486 28.7131 86.5686 28.7478 86.6375 28.8171C86.7064 28.8829 86.7408 28.9643 86.7408 29.0614C86.7408 29.1619 86.7064 29.2468 86.6375 29.3161C86.5686 29.3819 86.486 29.4148 86.3895 29.4148Z" fill="white"/>
<path d="M89.0396 32.7778C88.7916 32.7778 88.5746 32.7224 88.3887 32.6115C88.2061 32.4971 88.0649 32.336 87.9651 32.1281C87.8686 31.9167 87.8204 31.6672 87.8204 31.3796C87.8204 31.0885 87.8721 30.8373 87.9754 30.6259C88.0787 30.4111 88.2251 30.2465 88.4145 30.1321C88.6039 30.0143 88.8278 29.9554 89.0861 29.9554C89.2789 29.9554 89.4494 29.9849 89.5975 30.0438C89.7456 30.1027 89.8627 30.1841 89.9488 30.2881C90.0384 30.3886 90.0831 30.5046 90.0831 30.6363C90.0831 30.7541 90.047 30.8512 89.9746 30.9274C89.9058 31.0002 89.8162 31.0365 89.706 31.0365C89.6199 31.0365 89.5493 31.0123 89.4942 30.9638C89.4425 30.9153 89.4167 30.8529 89.4167 30.7767C89.4167 30.7108 89.4305 30.6536 89.458 30.6051C89.489 30.5566 89.5183 30.5116 89.5459 30.47C89.5769 30.4284 89.5923 30.3868 89.5923 30.3452C89.5923 30.2898 89.5545 30.2447 89.4787 30.2101C89.4029 30.1754 89.3048 30.1581 89.1842 30.1581C88.9156 30.1581 88.7107 30.2586 88.5695 30.4596C88.4283 30.6571 88.3577 30.9447 88.3577 31.3224C88.3577 31.7001 88.4266 31.9895 88.5643 32.1905C88.7055 32.388 88.9087 32.4867 89.1739 32.4867C89.3427 32.4867 89.4908 32.4434 89.6182 32.3568C89.749 32.2667 89.8558 32.135 89.9385 31.9618L90.1244 32.0657C90.0383 32.291 89.9006 32.4659 89.7112 32.5907C89.5217 32.7154 89.2979 32.7778 89.0396 32.7778Z" fill="white"/>
<path d="M92.0755 32.7778C91.8276 32.7778 91.6106 32.7224 91.4246 32.6115C91.2421 32.4971 91.1009 32.3343 91.001 32.1229C90.9011 31.9115 90.8512 31.662 90.8512 31.3744C90.8512 31.0833 90.9011 30.8321 91.001 30.6207C91.1009 30.4059 91.2455 30.2413 91.4349 30.1269C91.6243 30.0126 91.8499 29.9554 92.1117 29.9554C92.3355 29.9554 92.5284 29.9987 92.6903 30.0853C92.8556 30.172 92.9813 30.3089 93.0674 30.496C93.1569 30.6831 93.1983 30.9274 93.1914 31.2289H91.1818L91.1766 31.0313H92.6748C92.6782 30.8616 92.6593 30.7108 92.6179 30.5791C92.5766 30.4475 92.5112 30.3435 92.4216 30.2673C92.3355 30.191 92.2236 30.1529 92.0859 30.1529C91.9102 30.1529 91.7552 30.2274 91.6209 30.3764C91.49 30.5254 91.4125 30.7593 91.3884 31.0781L91.3936 31.0937C91.3902 31.1284 91.3884 31.1665 91.3884 31.2081C91.3884 31.2497 91.3884 31.293 91.3884 31.338C91.3884 31.7053 91.459 31.9895 91.6003 32.1905C91.7415 32.388 91.9446 32.4867 92.2098 32.4867C92.382 32.4867 92.5353 32.4452 92.6696 32.362C92.8074 32.2754 92.921 32.1419 93.0106 31.9618L93.1914 32.0657C93.1018 32.291 92.9589 32.4659 92.7626 32.5907C92.5697 32.7154 92.3407 32.7778 92.0755 32.7778Z" fill="white"/>
<path d="M95.1664 32.7778C95.0183 32.7778 94.8926 32.7605 94.7893 32.7258C94.6894 32.6946 94.6068 32.6652 94.5413 32.6375C94.4759 32.6063 94.4208 32.5907 94.376 32.5907C94.2968 32.5907 94.2383 32.6444 94.2004 32.7518H94.0041C94.0109 32.6687 94.0161 32.5786 94.0196 32.4815C94.023 32.3845 94.0247 32.2736 94.0247 32.1489C94.0282 32.0207 94.0282 31.8751 94.0247 31.7123H94.221C94.2692 31.9999 94.3657 32.2147 94.5103 32.3568C94.6584 32.4989 94.8565 32.5699 95.1044 32.5699C95.2835 32.5699 95.423 32.5318 95.5229 32.4555C95.6227 32.3758 95.6727 32.265 95.6727 32.1229C95.6727 31.9877 95.621 31.8786 95.5177 31.7954C95.4178 31.7088 95.2422 31.6308 94.9908 31.5615C94.6774 31.4749 94.4483 31.3623 94.3037 31.2237C94.159 31.0816 94.0867 30.9049 94.0867 30.6935C94.0867 30.4683 94.1608 30.2898 94.3089 30.1581C94.4569 30.023 94.6567 29.9554 94.9081 29.9554C95.0424 29.9554 95.1561 29.971 95.2491 30.0022C95.3421 30.0334 95.4195 30.0646 95.4815 30.0957C95.547 30.1269 95.6055 30.1425 95.6572 30.1425C95.6916 30.1425 95.7209 30.1304 95.745 30.1061C95.7691 30.0819 95.7898 30.042 95.807 29.9866H96.0085C96.0016 30.0594 95.9964 30.1373 95.993 30.2205C95.9895 30.3002 95.9861 30.3937 95.9826 30.5012C95.9826 30.6051 95.9844 30.7316 95.9878 30.8806H95.7863C95.7519 30.6554 95.6606 30.4786 95.5125 30.3504C95.3644 30.2188 95.1871 30.1529 94.9804 30.1529C94.8289 30.1529 94.7118 30.1893 94.6292 30.2621C94.5499 30.3314 94.5103 30.4301 94.5103 30.5583C94.5103 30.6935 94.5654 30.8061 94.6756 30.8962C94.7859 30.9828 94.977 31.0643 95.2491 31.1405C95.5487 31.2271 95.7639 31.3346 95.8948 31.4628C96.0291 31.591 96.0963 31.7608 96.0963 31.9722C96.0963 32.2216 96.0136 32.4192 95.8483 32.5647C95.683 32.7068 95.4557 32.7778 95.1664 32.7778Z" fill="white"/>
<path d="M5.56447 20.5862C5.56447 22.1322 4.31882 23.3856 2.78223 23.3856C1.24565 23.3856 0 22.1322 0 20.5862C0 19.0401 1.24565 17.7868 2.78223 17.7868C4.31882 17.7868 5.56447 19.0401 5.56447 20.5862Z" fill="#017FC1"/>
<path d="M10.1441 20.5861C10.1441 21.6089 9.32009 22.438 8.30358 22.438C7.28707 22.438 6.46302 21.6089 6.46302 20.5861C6.46302 19.5634 7.28707 18.7342 8.30358 18.7342C9.32009 18.7342 10.1441 19.5634 10.1441 20.5861Z" fill="#017FC1"/>
<path d="M13.3978 20.6076C13.3978 21.3093 12.8325 21.8781 12.1351 21.8781C11.4377 21.8781 10.8724 21.3093 10.8724 20.6076C10.8724 19.9059 11.4377 19.3371 12.1351 19.3371C12.8325 19.3371 13.3978 19.9059 13.3978 20.6076Z" fill="#017FC1"/>
<path d="M15.5803 20.5862C15.5803 21.0381 15.2162 21.4044 14.767 21.4044C14.3179 21.4044 13.9538 21.0381 13.9538 20.5862C13.9538 20.1342 14.3179 19.7679 14.767 19.7679C15.2162 19.7679 15.5803 20.1342 15.5803 20.5862Z" fill="#017FC1"/>
<path d="M17.3356 20.586C17.3356 20.9666 17.029 21.2751 16.6507 21.2751C16.2725 21.2751 15.9659 20.9666 15.9659 20.586C15.9659 20.2054 16.2725 19.8969 16.6507 19.8969C17.029 19.8969 17.3356 20.2054 17.3356 20.586Z" fill="#017FC1"/>
<path d="M18.834 20.5861C18.834 20.8954 18.5849 21.146 18.2776 21.146C17.9703 21.146 17.7211 20.8954 17.7211 20.5861C17.7211 20.2769 17.9703 20.0263 18.2776 20.0263C18.5849 20.0263 18.834 20.2769 18.834 20.5861Z" fill="#017FC1"/>
<path d="M19.9039 20.5862C19.9039 20.7765 19.7506 20.9308 19.5615 20.9308C19.3724 20.9308 19.2191 20.7765 19.2191 20.5862C19.2191 20.396 19.3724 20.2417 19.5615 20.2417C19.7506 20.2417 19.9039 20.396 19.9039 20.5862Z" fill="#017FC1"/>
<path d="M35.0568 20.5861C35.0568 19.04 36.3025 17.7867 37.8391 17.7867C39.3756 17.7867 40.6213 19.04 40.6213 20.5861C40.6213 22.1321 39.3756 23.3855 37.8391 23.3855C36.3025 23.3855 35.0568 22.1321 35.0568 20.5861Z" fill="#017FC1"/>
<path d="M30.477 20.586C30.477 19.5632 31.301 18.7341 32.3176 18.7341C33.3341 18.7341 34.1581 19.5632 34.1581 20.586C34.1581 21.6088 33.3341 22.4379 32.3176 22.4379C31.301 22.4379 30.477 21.6088 30.477 20.586Z" fill="#017FC1"/>
<path d="M27.2236 20.5645C27.2236 19.8629 27.7889 19.294 28.4863 19.294C29.1836 19.294 29.749 19.8629 29.749 20.5645C29.749 21.2662 29.1836 21.835 28.4863 21.835C27.7889 21.835 27.2236 21.2662 27.2236 20.5645Z" fill="#017FC1"/>
<path d="M25.0409 20.5862C25.0409 20.1342 25.405 19.7679 25.8542 19.7679C26.3033 19.7679 26.6674 20.1342 26.6674 20.5862C26.6674 21.0381 26.3033 21.4044 25.8542 21.4044C25.405 21.4044 25.0409 21.0381 25.0409 20.5862Z" fill="#017FC1"/>
<path d="M23.2857 20.5862C23.2857 20.2056 23.5923 19.8971 23.9706 19.8971C24.3488 19.8971 24.6554 20.2056 24.6554 20.5862C24.6554 20.9667 24.3488 21.2753 23.9706 21.2753C23.5923 21.2753 23.2857 20.9667 23.2857 20.5862Z" fill="#017FC1"/>
<path d="M21.7878 20.586C21.7878 20.2768 22.0369 20.0262 22.3443 20.0262C22.6516 20.0262 22.9007 20.2768 22.9007 20.586C22.9007 20.8953 22.6516 21.1459 22.3443 21.1459C22.0369 21.1459 21.7878 20.8953 21.7878 20.586Z" fill="#017FC1"/>
<path d="M20.7174 20.5862C20.7174 20.396 20.8707 20.2417 21.0598 20.2417C21.2489 20.2417 21.4022 20.396 21.4022 20.5862C21.4022 20.7765 21.2489 20.9308 21.0598 20.9308C20.8707 20.9308 20.7174 20.7765 20.7174 20.5862Z" fill="#017FC1"/>
<path d="M30.8119 31.1308C31.8985 30.0376 33.6601 30.0376 34.7466 31.1308C35.8331 32.224 35.8331 33.9965 34.7466 35.0897C33.6601 36.1829 31.8985 36.1829 30.8119 35.0897C29.7254 33.9965 29.7254 32.224 30.8119 31.1308Z" fill="#77C6EF"/>
<path d="M27.5731 27.8724C28.2919 27.1491 29.4572 27.1491 30.176 27.8724C30.8948 28.5956 30.8948 29.7681 30.176 30.4913C29.4572 31.2145 28.2919 31.2145 27.5731 30.4913C26.8543 29.7681 26.8543 28.5956 27.5731 27.8724Z" fill="#77C6EF"/>
<path d="M25.2882 25.5426C25.7814 25.0464 26.5809 25.0464 27.074 25.5426C27.5671 26.0388 27.5671 26.8432 27.074 27.3393C26.5809 27.8355 25.7814 27.8355 25.2882 27.3393C24.7951 26.8432 24.7951 26.0388 25.2882 25.5426Z" fill="#77C6EF"/>
<path d="M23.7291 24.0049C24.0467 23.6854 24.5616 23.6854 24.8792 24.0049C25.1968 24.3245 25.1968 24.8426 24.8792 25.1621C24.5616 25.4817 24.0467 25.4817 23.7291 25.1621C23.4115 24.8426 23.4115 24.3245 23.7291 24.0049Z" fill="#77C6EF"/>
<path d="M22.4886 22.7563C22.756 22.4872 23.1897 22.4872 23.4571 22.7563C23.7246 23.0254 23.7246 23.4617 23.4571 23.7308C23.1897 23.9999 22.756 23.9999 22.4886 23.7308C22.2211 23.4617 22.2211 23.0254 22.4886 22.7563Z" fill="#77C6EF"/>
<path d="M21.429 21.6905C21.6463 21.4718 21.9986 21.4718 22.2159 21.6905C22.4332 21.9091 22.4332 22.2636 22.2159 22.4823C21.9986 22.7009 21.6463 22.7009 21.429 22.4823C21.2117 22.2636 21.2117 21.9091 21.429 21.6905Z" fill="#77C6EF"/>
<path d="M20.6726 20.9289C20.8063 20.7944 21.0231 20.7944 21.1568 20.9289C21.2906 21.0635 21.2906 21.2816 21.1568 21.4162C21.0231 21.5507 20.8063 21.5507 20.6726 21.4162C20.5388 21.2816 20.5388 21.0635 20.6726 20.9289Z" fill="#77C6EF"/>
<path d="M9.83973 31.1308C10.9263 32.224 10.9263 33.9965 9.83973 35.0897C8.7532 36.1829 6.99158 36.1829 5.90505 35.0897C4.81852 33.9965 4.81852 32.224 5.90505 31.1308C6.99158 30.0376 8.7532 30.0376 9.83973 31.1308Z" fill="#77C6EF"/>
<path d="M13.0786 27.8724C13.7974 28.5956 13.7974 29.7682 13.0786 30.4914C12.3598 31.2146 11.1945 31.2146 10.4757 30.4914C9.7569 29.7682 9.7569 28.5956 10.4757 27.8724C11.1945 27.1492 12.3598 27.1492 13.0786 27.8724Z" fill="#77C6EF"/>
<path d="M15.3938 25.5732C15.887 26.0693 15.887 26.8738 15.3938 27.3699C14.9007 27.8661 14.1012 27.8661 13.6081 27.3699C13.115 26.8738 13.115 26.0693 13.6081 25.5732C14.1012 25.077 14.9007 25.077 15.3938 25.5732Z" fill="#77C6EF"/>
<path d="M16.9221 24.0048C17.2397 24.3244 17.2397 24.8425 16.9221 25.162C16.6045 25.4816 16.0896 25.4816 15.772 25.162C15.4544 24.8425 15.4544 24.3244 15.772 24.0048C16.0896 23.6853 16.6045 23.6853 16.9221 24.0048Z" fill="#77C6EF"/>
<path d="M18.1634 22.7561C18.4309 23.0252 18.4309 23.4615 18.1634 23.7306C17.896 23.9997 17.4623 23.9997 17.1949 23.7306C16.9274 23.4615 16.9274 23.0252 17.1949 22.7561C17.4623 22.487 17.896 22.487 18.1634 22.7561Z" fill="#77C6EF"/>
<path d="M19.2222 21.6905C19.4396 21.9091 19.4396 22.2636 19.2222 22.4823C19.0049 22.7009 18.6526 22.7009 18.4353 22.4823C18.218 22.2636 18.218 21.9091 18.4353 21.6905C18.6526 21.4719 19.0049 21.4719 19.2222 21.6905Z" fill="#77C6EF"/>
<path d="M19.9796 20.9292C20.1133 21.0637 20.1133 21.2819 19.9796 21.4164C19.8459 21.551 19.6291 21.551 19.4953 21.4164C19.3616 21.2819 19.3616 21.0637 19.4953 20.9292C19.6291 20.7946 19.8459 20.7946 19.9796 20.9292Z" fill="#77C6EF"/>
<path d="M9.88231 10.0297C8.79578 11.1229 7.03416 11.1229 5.94763 10.0297C4.8611 8.93648 4.8611 7.16402 5.94764 6.07079C7.03417 4.97757 8.79578 4.97757 9.88231 6.07079C10.9688 7.16402 10.9688 8.93648 9.88231 10.0297Z" fill="#77C6EF"/>
<path d="M13.1206 13.2882C12.4018 14.0114 11.2364 14.0114 10.5176 13.2882C9.79885 12.565 9.79885 11.3924 10.5176 10.6692C11.2364 9.94601 12.4018 9.94601 13.1206 10.6692C13.8393 11.3924 13.8393 12.565 13.1206 13.2882Z" fill="#77C6EF"/>
<path d="M15.406 15.6179C14.9129 16.1141 14.1134 16.1141 13.6202 15.6179C13.1271 15.1217 13.1271 14.3173 13.6202 13.8212C14.1134 13.325 14.9129 13.325 15.406 13.8212C15.8991 14.3173 15.8991 15.1217 15.406 15.6179Z" fill="#77C6EF"/>
<path d="M16.9646 17.1558C16.647 17.4753 16.132 17.4753 15.8144 17.1558C15.4968 16.8362 15.4968 16.3181 15.8144 15.9986C16.132 15.679 16.647 15.679 16.9646 15.9986C17.2822 16.3181 17.2822 16.8362 16.9646 17.1558Z" fill="#77C6EF"/>
<path d="M18.2056 18.4043C17.9381 18.6734 17.5045 18.6734 17.237 18.4043C16.9696 18.1352 16.9696 17.6989 17.237 17.4298C17.5045 17.1607 17.9381 17.1607 18.2056 17.4298C18.473 17.6989 18.473 18.1352 18.2056 18.4043Z" fill="#77C6EF"/>
<path d="M19.2647 19.4702C19.0473 19.6888 18.695 19.6888 18.4777 19.4702C18.2604 19.2516 18.2604 18.8971 18.4777 18.6784C18.695 18.4598 19.0473 18.4598 19.2647 18.6784C19.482 18.8971 19.482 19.2516 19.2647 19.4702Z" fill="#77C6EF"/>
<path d="M20.0217 20.2316C19.8879 20.3661 19.6711 20.3661 19.5374 20.2316C19.4037 20.097 19.4037 19.8789 19.5374 19.7443C19.6711 19.6098 19.8879 19.6098 20.0217 19.7443C20.1554 19.8789 20.1554 20.097 20.0217 20.2316Z" fill="#77C6EF"/>
<path d="M20.2883 5.59874C18.7517 5.59874 17.5061 4.34542 17.5061 2.79937C17.5061 1.25332 18.7517 -6.758e-08 20.2883 0C21.8249 6.758e-08 23.0706 1.25332 23.0706 2.79937C23.0706 4.34542 21.8249 5.59874 20.2883 5.59874Z" fill="#017FC1"/>
<path d="M20.2886 10.207C19.272 10.207 18.448 9.37784 18.448 8.35506C18.448 7.33229 19.272 6.50317 20.2886 6.50317C21.3051 6.50317 22.1291 7.33229 22.1291 8.35506C22.1291 9.37784 21.3051 10.207 20.2886 10.207Z" fill="#017FC1"/>
<path d="M20.2666 13.48C19.5693 13.48 19.0039 12.9112 19.0039 12.2095C19.0039 11.5079 19.5693 10.939 20.2666 10.939C20.964 10.939 21.5294 11.5079 21.5294 12.2095C21.5294 12.9112 20.964 13.48 20.2666 13.48Z" fill="#017FC1"/>
<path d="M20.2882 15.6765C19.839 15.6765 19.4749 15.3102 19.4749 14.8582C19.4749 14.4063 19.839 14.04 20.2882 14.04C20.7373 14.04 21.1015 14.4063 21.1015 14.8582C21.1015 15.3102 20.7373 15.6765 20.2882 15.6765Z" fill="#017FC1"/>
<path d="M20.2882 17.4422C19.9099 17.4422 19.6033 17.1337 19.6033 16.7531C19.6033 16.3725 19.9099 16.064 20.2882 16.064C20.6664 16.064 20.973 16.3725 20.973 16.7531C20.973 17.1337 20.6664 17.4422 20.2882 17.4422Z" fill="#017FC1"/>
<path d="M20.2888 18.9496C19.9815 18.9496 19.7323 18.699 19.7323 18.3897C19.7323 18.0805 19.9815 17.8299 20.2888 17.8299C20.5961 17.8299 20.8452 18.0805 20.8452 18.3897C20.8452 18.699 20.5961 18.9496 20.2888 18.9496Z" fill="#017FC1"/>
<path d="M20.2883 20.0262C20.0992 20.0262 19.9458 19.8719 19.9458 19.6816C19.9458 19.4914 20.0992 19.3371 20.2883 19.3371C20.4774 19.3371 20.6307 19.4914 20.6307 19.6816C20.6307 19.8719 20.4774 20.0262 20.2883 20.0262Z" fill="#017FC1"/>
<path d="M30.7688 10.0727C29.6823 8.97945 29.6823 7.20698 30.7688 6.11376C31.8553 5.02054 33.6169 5.02054 34.7035 6.11376C35.79 7.20699 35.79 8.97945 34.7035 10.0727C33.6169 11.1659 31.8553 11.1659 30.7688 10.0727Z" fill="#77C6EF"/>
<path d="M27.5304 13.3311C26.8117 12.6078 26.8117 11.4353 27.5304 10.7121C28.2492 9.98888 29.4146 9.98888 30.1334 10.7121C30.8522 11.4353 30.8522 12.6078 30.1334 13.3311C29.4146 14.0543 28.2492 14.0543 27.5304 13.3311Z" fill="#77C6EF"/>
<path d="M25.2147 15.6303C24.7215 15.1342 24.7215 14.3297 25.2147 13.8336C25.7078 13.3374 26.5073 13.3374 27.0004 13.8336C27.4935 14.3297 27.4935 15.1342 27.0004 15.6303C26.5073 16.1265 25.7078 16.1265 25.2147 15.6303Z" fill="#77C6EF"/>
<path d="M23.6863 17.1987C23.3687 16.8792 23.3687 16.3611 23.6863 16.0415C24.004 15.7219 24.5189 15.7219 24.8365 16.0415C25.1541 16.3611 25.1541 16.8792 24.8365 17.1987C24.5189 17.5183 24.004 17.5183 23.6863 17.1987Z" fill="#77C6EF"/>
<path d="M22.4457 18.4475C22.1782 18.1784 22.1782 17.7421 22.4457 17.473C22.7131 17.2039 23.1467 17.2039 23.4142 17.473C23.6816 17.7421 23.6816 18.1784 23.4142 18.4475C23.1467 18.7166 22.7131 18.7166 22.4457 18.4475Z" fill="#77C6EF"/>
<path d="M21.3863 19.5131C21.169 19.2945 21.169 18.94 21.3863 18.7213C21.6036 18.5027 21.9559 18.5027 22.1732 18.7213C22.3906 18.94 22.3906 19.2945 22.1732 19.5131C21.9559 19.7317 21.6036 19.7317 21.3863 19.5131Z" fill="#77C6EF"/>
<path d="M20.6294 20.2747C20.4957 20.1401 20.4957 19.922 20.6294 19.7874C20.7632 19.6529 20.98 19.6529 21.1137 19.7874C21.2474 19.922 21.2474 20.1401 21.1137 20.2747C20.98 20.4092 20.7632 20.4092 20.6294 20.2747Z" fill="#77C6EF"/>
<path d="M20.2888 35.4013C21.8253 35.4013 23.071 36.6546 23.071 38.2006C23.071 39.7467 21.8253 41 20.2888 41C18.7522 41 17.5065 39.7467 17.5065 38.2006C17.5065 36.6546 18.7522 35.4013 20.2888 35.4013Z" fill="#017FC1"/>
<path d="M20.2886 30.7931C21.3052 30.7931 22.1292 31.6222 22.1292 32.645C22.1292 33.6678 21.3052 34.4969 20.2886 34.4969C19.2721 34.4969 18.4481 33.6678 18.4481 32.645C18.4481 31.6222 19.2721 30.7931 20.2886 30.7931Z" fill="#017FC1"/>
<path d="M20.31 27.52C21.0074 27.52 21.5727 28.0888 21.5727 28.7905C21.5727 29.4922 21.0074 30.061 20.31 30.061C19.6126 30.061 19.0473 29.4922 19.0473 28.7905C19.0473 28.0888 19.6126 27.52 20.31 27.52Z" fill="#017FC1"/>
<path d="M20.2884 25.3235C20.7376 25.3235 21.1017 25.6898 21.1017 26.1417C21.1017 26.5937 20.7376 26.96 20.2884 26.96C19.8393 26.96 19.4752 26.5937 19.4752 26.1417C19.4752 25.6898 19.8393 25.3235 20.2884 25.3235Z" fill="#017FC1"/>
<path d="M20.2885 23.5578C20.6667 23.5578 20.9733 23.8663 20.9733 24.2469C20.9733 24.6274 20.6667 24.936 20.2885 24.936C19.9102 24.936 19.6036 24.6274 19.6036 24.2469C19.6036 23.8663 19.9102 23.5578 20.2885 23.5578Z" fill="#017FC1"/>
<path d="M20.2885 22.0504C20.5958 22.0504 20.8449 22.301 20.8449 22.6103C20.8449 22.9195 20.5958 23.1701 20.2885 23.1701C19.9812 23.1701 19.732 22.9195 19.732 22.6103C19.732 22.301 19.9812 22.0504 20.2885 22.0504Z" fill="#017FC1"/>
<path d="M20.289 20.9738C20.4781 20.9738 20.6314 21.1281 20.6314 21.3184C20.6314 21.5086 20.4781 21.6629 20.289 21.6629C20.0999 21.6629 19.9466 21.5086 19.9466 21.3184C19.9466 21.1281 20.0999 20.9738 20.289 20.9738Z" fill="#017FC1"/>
</svg>
