<svg width="16" height="16" viewBox="0 0 16 16" fill="none" xmlns="http://www.w3.org/2000/svg">
<path d="M5.48248 5.97185C4.5828 5.97185 3.71762 5.97185 2.85244 5.97185C2.59076 5.97185 2.32856 5.9756 2.06688 5.96917C1.87739 5.96489 1.74151 5.85405 1.73567 5.66665C1.7224 5.27204 1.73142 4.8769 1.73142 4.46997H10.7112C10.7112 4.88172 10.724 5.28757 10.7059 5.69182C10.6974 5.88136 10.5472 5.97078 10.3206 5.97078C9.32431 5.97185 8.32749 5.97078 7.33121 5.97078C7.21921 5.97078 7.10669 5.97078 6.97664 5.97078C6.99734 6.02539 7.00796 6.06234 7.02441 6.0966C7.2346 6.53565 7.44214 6.97578 7.65976 7.41162C7.6863 7.46462 7.76327 7.52513 7.81741 7.52566C9.34925 7.53102 10.8811 7.52941 12.4129 7.52834C12.4294 7.52834 12.4453 7.52084 12.4421 7.52138C12.3174 7.00415 12.1927 6.488 12.0679 5.97238C12.0435 5.87226 12.0154 5.77213 11.9995 5.67094C11.9729 5.50549 12.0446 5.40751 12.207 5.40697C13.0839 5.40322 13.9607 5.40269 14.8376 5.40697C15.0154 5.40804 15.078 5.51995 15.0302 5.72555C14.914 6.22243 14.7962 6.71877 14.6762 7.21458C14.6523 7.31256 14.6168 7.4084 14.5828 7.51817C14.6226 7.52191 14.6698 7.52941 14.7171 7.52941C15.0302 7.53048 15.3434 7.52941 15.6566 7.52995C15.9496 7.52995 15.9968 7.57706 15.9968 7.86619C15.9968 9.12392 15.9968 10.3822 15.9968 11.6399C15.9968 13.024 15.9947 14.4086 16 15.7927C16.0005 15.9453 15.9681 16.0085 15.8031 15.9994C15.5361 15.9854 15.2675 15.987 15.0005 15.9988C14.845 16.0058 14.7962 15.9597 14.7972 15.7975C14.8036 14.5109 14.801 13.2242 14.801 11.9376V9.1796H11.6136C11.354 8.40162 10.9156 8.037 10.2781 8.0536C9.65127 8.07019 9.22611 8.44232 9.01167 9.17425H1.19745V9.39324C1.19745 11.5184 1.19745 13.644 1.19745 15.7691C1.19745 15.9201 1.12296 15.9958 0.973991 15.9961C0.706475 15.9961 0.438429 15.9913 0.170913 15.9983C0.0509554 16.0036 0 15.9742 0 15.8393C0.00318471 13.1568 0.00212314 10.4743 0.00318471 7.79177C0.00318471 7.5942 0.0748408 7.53262 0.298832 7.53262C1.12473 7.53155 1.95011 7.53262 2.77601 7.53209C3.37367 7.53209 3.97187 7.5278 4.56953 7.5353C4.69798 7.53691 4.76008 7.493 4.81316 7.37842C5.02601 6.91688 5.24894 6.46016 5.48248 5.97238V5.97185ZM13.5281 6.89546C13.7574 6.89118 13.9459 6.69521 13.9437 6.46284C13.9421 6.231 13.7495 6.03771 13.5202 6.03771C13.285 6.03771 13.0865 6.24385 13.095 6.47943C13.1035 6.71288 13.2983 6.89975 13.5281 6.89546ZM6.22558 5.48461C6.3742 5.483 6.49628 5.35771 6.49204 5.211C6.48779 5.06483 6.35828 4.94382 6.21178 4.94918C6.07165 4.95453 5.95541 5.07501 5.95435 5.21582C5.95329 5.36467 6.07537 5.48621 6.22505 5.48407L6.22558 5.48461Z" fill="white"/>
<path d="M10.7241 4.07086H1.72461C1.72461 4.00233 1.72461 3.94129 1.72461 3.87972C1.72461 2.74247 1.72461 1.60522 1.72461 0.467965C1.72514 0.102267 1.82864 0 2.19489 0C4.88278 0 7.57015 0 10.258 0C10.6206 0 10.7241 0.104409 10.7241 0.473319C10.7241 1.61057 10.7241 2.74782 10.7241 3.88507V4.07086Z" fill="white"/>
<path d="M11.4208 15.9915H10.4945C10.4945 15.7114 10.4945 15.4378 10.4945 15.1637C10.4945 15.1064 10.4935 15.0491 10.4945 14.9913C10.4961 14.8623 10.4383 14.7728 10.3088 14.7718C10.1793 14.7707 10.1193 14.8585 10.1193 14.9881C10.1193 15.2638 10.1193 15.539 10.1193 15.8148C10.1193 15.8705 10.1193 15.9261 10.1193 15.9899H9.19358C9.19358 15.9294 9.19358 15.8694 9.19358 15.8089C9.19358 15.3725 9.19517 14.9361 9.19252 14.4998C9.19146 14.3397 9.11078 14.2519 8.98551 14.2674C8.84804 14.2845 8.81726 14.3809 8.81779 14.503C8.81938 14.9335 8.81832 15.3639 8.81832 15.795C8.81832 15.8565 8.81832 15.9181 8.81832 15.9979H8.08902C7.73605 15.9979 7.38307 16.0022 7.03063 15.9947C6.95526 15.9931 6.88095 15.9492 6.80664 15.9251C6.8422 15.8587 6.86662 15.7821 6.91545 15.7286C7.03859 15.5931 7.17023 15.4662 7.30239 15.3399C7.67394 14.9838 7.85441 14.549 7.84592 14.0318C7.84167 13.7577 7.84539 13.483 7.84539 13.1965H12.7621C12.7647 13.2592 12.769 13.325 12.7711 13.3909C12.7812 13.7346 12.7668 14.0816 12.8066 14.4221C12.8475 14.7739 13.0359 15.0652 13.287 15.3125C13.4457 15.4689 13.606 15.6242 13.7583 15.7869C13.7907 15.8217 13.8045 15.8887 13.7992 15.9379C13.7966 15.9615 13.7291 15.9947 13.6909 15.9952C13.0662 15.999 12.4415 15.9979 11.7971 15.9979V15.7987C11.7971 15.1214 11.7966 14.4435 11.7976 13.7662C11.7976 13.6565 11.7886 13.5553 11.6665 13.5162C11.5274 13.4717 11.4229 13.5729 11.4224 13.7566C11.4208 14.4339 11.4218 15.1118 11.4218 15.7891C11.4218 15.8512 11.4218 15.9133 11.4218 15.992L11.4208 15.9915Z" fill="white"/>
<path d="M7.84892 12.7879C7.84892 12.4736 7.83511 12.1754 7.85263 11.8788C7.87015 11.5843 8.10157 11.3851 8.40571 11.3798C8.72312 11.3739 9.04053 11.3787 9.37864 11.3787C9.37864 11.2946 9.37864 11.2277 9.37864 11.1608C9.37864 10.5691 9.37015 9.97801 9.38129 9.38636C9.39456 8.66193 10.0851 8.21484 10.7083 8.52378C11.0718 8.70369 11.2327 9.01745 11.2343 9.41902C11.2359 10.0048 11.2343 10.5905 11.2348 11.1758C11.2348 11.2373 11.2348 11.2984 11.2348 11.3776C11.5421 11.3776 11.8309 11.3776 12.1196 11.3776C12.5549 11.3787 12.7661 11.5923 12.7677 12.0341C12.7688 12.2804 12.7677 12.5261 12.7677 12.7874H7.84838L7.84892 12.7879ZM10.6302 9.39653C10.6329 9.21395 10.4949 9.06778 10.3149 9.06296C10.127 9.05814 9.97843 9.20432 9.98002 9.39332C9.98108 9.5743 10.1249 9.7194 10.3038 9.71993C10.4827 9.72047 10.6276 9.57697 10.6302 9.396V9.39653Z" fill="white"/>
<path d="M5.80638 13.1926V14.7818H1.58398V13.1926H5.80638ZM3.68802 14.1746C3.93324 14.1746 4.02878 14.1221 4.02772 13.9877C4.02666 13.8523 3.92846 13.7977 3.68642 13.7982C3.455 13.7982 3.36212 13.8496 3.35575 13.9802C3.34938 14.1178 3.44651 14.1746 3.68749 14.1746H3.68802Z" fill="white"/>
<path d="M1.58008 12.789V11.3567H5.80194V12.789H1.58008ZM3.76001 11.8889C3.45163 11.8889 3.35715 11.9403 3.35662 12.0752C3.35662 12.2118 3.45534 12.268 3.69579 12.268C3.93146 12.268 4.04345 12.2048 4.02647 12.0683C4.00099 11.8643 3.84016 11.8878 3.76001 11.8889Z" fill="white"/>
<path d="M1.58008 10.9542V9.56372H5.79504V10.9542H1.58008ZM3.68677 10.4493C3.9288 10.4493 4.02381 10.3974 4.02541 10.2641C4.027 10.1286 3.92721 10.0702 3.69154 10.0702C3.45269 10.0702 3.35502 10.1249 3.3529 10.2592C3.35078 10.3942 3.44738 10.4493 3.68623 10.4493H3.68677Z" fill="white"/>
<path d="M14.3934 5.0173H12.6519C12.6519 4.57289 12.6216 4.13598 12.6604 3.70496C12.6996 3.27233 13.1365 2.95215 13.5622 2.98106C14.017 3.01212 14.3764 3.36122 14.3907 3.80937C14.4035 4.2088 14.3934 4.60876 14.3934 5.01676V5.0173Z" fill="white"/>
</svg>
