<svg width="16" height="16" viewBox="0 0 16 16" fill="none" xmlns="http://www.w3.org/2000/svg">
<path d="M12.2187 0C12.2139 0.0616692 12.2042 0.123338 12.2042 0.185008C12.2032 1.04886 12.2037 1.9132 12.2037 2.77706V2.97275H4.0625V0C5.2292 0 6.39591 0 7.56261 0C7.51456 0.0645827 7.467 0.129165 7.43497 0.171897C8.15615 0.892989 8.87394 1.61165 9.58638 2.32401C9.69509 2.21863 9.81739 2.10064 9.94697 1.97584C9.90426 1.93117 9.86641 1.88941 9.82661 1.84959C9.25345 1.27612 8.68029 0.70264 8.10762 0.12868C8.06831 0.0893475 8.03579 0.043217 7.99988 0C9.40633 0 10.8123 0 12.2187 0V0ZM7.74557 1.99381C7.39566 1.64273 7.03798 1.28388 6.69146 0.936206C6.58081 1.04158 6.45803 1.1586 6.34786 1.26349C6.70602 1.62137 7.06128 1.97633 7.41798 2.33275C7.52572 2.22106 7.64414 2.09821 7.74509 1.99381H7.74557Z" fill="white"/>
<path d="M16.0013 6.90847C15.8989 7.14009 15.7514 7.3149 15.4728 7.32024C15.1894 7.32558 14.9652 7.13426 14.9215 6.8502C14.8836 6.60303 15.0457 6.34616 15.2908 6.26652C15.549 6.18203 15.8247 6.301 15.947 6.54913C15.9649 6.58555 15.9834 6.62197 16.0013 6.65888V6.90895V6.90847Z" fill="white"/>
<path d="M12.7551 2.98247V1.3645H15.4486V5.67601C14.6974 5.87364 14.3727 6.20966 14.3742 6.78654C14.3756 7.3537 14.7017 7.68875 15.4506 7.88639V15.4537H8.95898C8.95898 13.6522 8.95898 11.8522 8.95898 10.0526C9.38024 9.93798 9.4938 9.78648 9.4938 9.34071C9.4938 8.7313 9.4938 8.12141 9.4938 7.512V7.32262C9.56903 7.32262 9.62969 7.32262 9.69036 7.32262C10.4926 7.32262 11.2943 7.32262 12.0966 7.32262C12.5464 7.32262 12.7464 7.12256 12.7469 6.67631C12.7469 6.53695 12.7469 6.39758 12.7469 6.24171C13.0745 6.24171 13.3856 6.24171 13.6967 6.24171C14.1761 6.24171 14.3732 6.04651 14.3732 5.5716C14.3732 4.91509 14.3737 4.25858 14.3732 3.60207C14.3732 3.19904 14.1606 2.98538 13.7568 2.98344C13.4288 2.9815 13.1012 2.98344 12.7547 2.98344L12.7551 2.98247ZM9.76801 10.5887C9.76461 10.643 9.76073 10.679 9.76073 10.7154C9.76073 11.6482 9.76024 12.5805 9.76121 13.5133C9.76121 13.5857 9.76849 13.6595 9.7816 13.7309C9.86167 14.1582 10.3048 14.4515 10.7304 14.3607C11.1381 14.2738 11.3851 13.9606 11.387 13.5124C11.3904 12.8403 11.388 12.1683 11.388 11.4962C11.388 10.5843 11.3875 9.67285 11.3885 8.76092C11.3885 8.5361 11.4855 8.41276 11.6559 8.41033C11.8301 8.4079 11.932 8.53901 11.933 8.76869C11.9335 8.99255 11.9311 9.21689 11.934 9.44074C11.9359 9.6073 11.9223 9.77774 11.9544 9.93847C12.0378 10.3561 12.4149 10.6139 12.8454 10.5697C13.2414 10.5289 13.553 10.1876 13.5574 9.76948C13.5637 9.20669 13.5593 8.6439 13.5593 8.08159C13.5593 8.01555 13.5593 7.94951 13.5593 7.8791H13.0167C13.0167 7.94466 13.0167 8.0005 13.0167 8.05683C13.0167 8.58806 13.0177 9.11977 13.0158 9.651C13.0158 9.72335 13.0158 9.80056 12.9905 9.86611C12.9425 9.99236 12.8386 10.0477 12.7037 10.0312C12.5678 10.0147 12.4741 9.90156 12.4722 9.7418C12.4678 9.37713 12.4761 9.01246 12.4678 8.64778C12.4586 8.2195 12.1121 7.88104 11.6855 7.87036C11.2055 7.85822 10.8454 8.21853 10.8449 8.72013C10.843 10.2886 10.8444 11.8565 10.844 13.425C10.844 13.4823 10.8474 13.54 10.8406 13.5969C10.8236 13.7352 10.709 13.8338 10.5736 13.8333C10.4377 13.8329 10.3256 13.7328 10.3096 13.5944C10.3038 13.543 10.3062 13.4905 10.3062 13.4381C10.3062 12.547 10.3062 11.6565 10.3062 10.7654C10.3062 10.7096 10.3062 10.6542 10.3062 10.5891H9.76704L9.76801 10.5887ZM13.2875 11.132C13.2875 11.6098 13.2735 12.0687 13.2914 12.5257C13.3079 12.9481 13.6535 13.2735 14.0592 13.2875C14.5338 13.3041 14.9075 12.9607 14.9095 12.4839C14.9148 11.1553 14.9114 9.82678 14.9114 8.49822C14.9114 8.47346 14.907 8.44869 14.9041 8.42004H14.3732V8.61962C14.3732 9.87534 14.3732 11.1311 14.3732 12.3863C14.3732 12.6169 14.2727 12.749 14.0999 12.7485C13.9272 12.7476 13.833 12.6203 13.8321 12.3834C13.8311 12.1644 13.8321 11.9459 13.8321 11.7269C13.8321 11.5302 13.8321 11.3335 13.8321 11.1315H13.288L13.2875 11.132Z" fill="white"/>
<path d="M7.31248 15.4591H0.835437C0.777199 15.2008 0.785449 15.1925 1.00481 15.0813C1.41345 14.8735 1.6333 14.5379 1.62165 14.0776C1.61 13.6241 1.37559 13.305 0.966958 13.1137C0.919882 13.0919 0.87038 13.0754 0.817965 13.055V5.06321C1.1771 5.1817 1.53284 5.1851 1.90071 5.05981C1.90071 5.27007 1.89925 5.46188 1.90071 5.65368C1.90362 6.01836 2.11667 6.23493 2.48357 6.24076C2.76991 6.24513 3.05625 6.24173 3.34307 6.24173C3.39888 6.24173 3.45421 6.24173 3.52701 6.24173C3.52701 6.40488 3.52701 6.54959 3.52701 6.69429C3.52798 7.12258 3.72744 7.32215 4.15986 7.32264C4.97228 7.32361 5.7847 7.32264 6.59712 7.32264C6.65293 7.32264 6.70875 7.32264 6.78009 7.32264C6.78009 7.43335 6.78009 7.52561 6.78009 7.61836C6.78009 8.19669 6.78009 8.77502 6.78009 9.35335C6.78009 9.78892 6.89365 9.93994 7.31297 10.0555V15.4596L7.31248 15.4591ZM6.23847 10.5896C6.23847 10.6707 6.23847 10.7324 6.23847 10.7946C6.23847 11.6749 6.23847 12.5553 6.23799 13.4357C6.23799 13.4978 6.23799 13.5614 6.22488 13.6216C6.19625 13.7566 6.10404 13.8285 5.96961 13.8309C5.83518 13.8334 5.74005 13.7629 5.70754 13.6299C5.69152 13.5653 5.69249 13.4959 5.69249 13.4289C5.69152 11.8818 5.69249 10.3342 5.69104 8.78716C5.69104 8.68859 5.69104 8.5871 5.66871 8.49241C5.57116 8.08209 5.20814 7.83396 4.7801 7.87523C4.38796 7.91311 4.07541 8.25884 4.06668 8.67548C4.05988 9.01927 4.06571 9.36306 4.06425 9.70686C4.06328 9.91566 3.96234 10.0361 3.79296 10.0346C3.62407 10.0332 3.52749 9.9142 3.52701 9.70152C3.52604 9.14941 3.52701 8.5973 3.52701 8.0447C3.52701 7.98983 3.52701 7.93447 3.52701 7.88009H2.98151C2.98151 8.0413 2.98102 8.19183 2.98151 8.34188C2.98442 8.84689 2.96549 9.35384 2.99704 9.8569C3.02907 10.3702 3.55661 10.695 4.04532 10.5372C4.39475 10.4241 4.60392 10.1279 4.60926 9.72579C4.61412 9.37666 4.60732 9.02752 4.6146 8.67887C4.618 8.51523 4.73302 8.40986 4.88056 8.40938C5.02567 8.40938 5.13826 8.5196 5.15185 8.67742C5.15573 8.72403 5.1533 8.77114 5.1533 8.81824C5.1533 10.3813 5.15427 11.9439 5.15185 13.507C5.15185 13.7241 5.20281 13.9188 5.34403 14.0859C5.56777 14.3495 5.91331 14.4432 6.23459 14.3291C6.55975 14.2136 6.77669 13.9188 6.77766 13.5653C6.78154 12.6014 6.77912 11.6375 6.77863 10.6741C6.77863 10.6489 6.77378 10.6236 6.77038 10.5887H6.23799L6.23847 10.5896ZM1.62505 8.41472C1.62505 8.88039 1.62505 9.33247 1.62505 9.78455C1.62505 10.6805 1.62214 11.5768 1.6265 12.4727C1.62893 12.9345 1.98709 13.2885 2.43747 13.289C2.89076 13.2895 3.2431 12.9384 3.25086 12.4766C3.25377 12.2994 3.25135 12.1222 3.25135 11.9454C3.25135 11.6764 3.25135 11.4069 3.25135 11.134H2.71313C2.71313 11.5433 2.71313 11.9435 2.71313 12.3436C2.71313 12.6165 2.61995 12.7524 2.43553 12.7495C2.25596 12.7466 2.16666 12.6155 2.16666 12.3509C2.16666 11.1005 2.16666 9.8501 2.16666 8.60021V8.41423H1.62505V8.41472Z" fill="white"/>
<path d="M3.52955 5.68948H2.45117V3.54028H13.8251V5.68705H12.7496C12.7496 5.53652 12.7501 5.38308 12.7496 5.22915C12.7481 4.83242 12.5385 4.61488 12.1459 4.61488C9.47468 4.61342 6.80301 4.61391 4.13183 4.61488C3.73678 4.61488 3.531 4.82757 3.52955 5.22672C3.52906 5.37676 3.52955 5.52632 3.52955 5.68948Z" fill="white"/>
<path d="M12.1946 5.16919V6.77647H9.49474C9.49474 6.6206 9.49522 6.46667 9.49474 6.31323C9.49231 5.91359 9.27489 5.69653 8.87499 5.69605C8.38045 5.69508 7.88591 5.69508 7.39137 5.69605C6.99827 5.69653 6.78279 5.91213 6.78133 6.304C6.78084 6.45502 6.78133 6.60603 6.78133 6.76968H4.07617V5.16919H12.1946Z" fill="white"/>
<path d="M7.33008 6.25122H8.93357V8.40236H7.33008V6.25122Z" fill="white"/>
<path d="M8.39333 16.0004H7.87695V10.0496H8.39333V16.0004Z" fill="white"/>
<path d="M2.28372 3.00325C1.9474 3.12561 1.87654 3.39317 1.89547 3.71657C1.90712 3.91857 1.8911 4.12252 1.90032 4.32501C1.90518 4.43038 1.87072 4.48768 1.77414 4.5241C1.36453 4.67948 0.982589 4.6319 0.649661 4.34686C0.316733 4.06182 0.199772 3.68889 0.305086 3.26352C0.410885 2.83718 0.692369 2.56865 1.11848 2.47007C1.59215 2.36033 2.08329 2.58807 2.28324 3.00325H2.28372Z" fill="white"/>
<path d="M0.818359 1.97391V1.3645H3.51964V2.9815C3.32308 2.9815 3.13284 2.9849 2.94308 2.9781C2.91299 2.97713 2.87368 2.93828 2.85718 2.9072C2.39807 2.05257 1.79627 1.76996 0.863494 1.97391C0.853788 1.97585 0.843111 1.97391 0.818359 1.97391Z" fill="white"/>
<path d="M5.71584e-05 14.098C0.0039397 13.7969 0.253393 13.559 0.557201 13.5653C0.850818 13.5716 1.09154 13.8212 1.08571 14.113C1.07989 14.4059 0.833832 14.6482 0.541671 14.6486C0.24223 14.6486 -0.0043107 14.3986 5.71584e-05 14.0975V14.098Z" fill="white"/>
<path d="M7.33008 8.95972H8.93939V9.48755H7.33008V8.95972Z" fill="white"/>
</svg>
