<svg width="16" height="16" viewBox="0 0 16 16" fill="none" xmlns="http://www.w3.org/2000/svg">
<path d="M2.27962 16.0016C2.00436 15.8948 1.91115 15.6891 1.91212 15.4013C1.91843 13.8087 1.91649 12.2161 1.9126 10.6235C1.9126 10.4954 1.93882 10.4265 2.0665 10.3639C2.22136 10.2877 2.36312 10.1708 2.48643 10.0475C4.2749 8.26569 6.05949 6.47996 7.84456 4.69423C7.88825 4.65007 7.92272 4.59669 7.95185 4.55981C9.67478 6.28246 11.3778 7.98521 13.0862 9.69282C12.6925 10.0034 12.5827 10.5076 12.34 10.9326C12.2886 11.0229 12.2152 11.1098 12.1327 11.1724C11.9463 11.3136 11.7473 11.4378 11.5545 11.5707C10.7365 12.1356 10.7321 13.2691 11.5458 13.8403C11.5584 13.849 11.571 13.8592 11.5846 13.866C12.1075 14.1271 12.4405 14.5434 12.6386 15.0908C12.7886 15.5057 13.0789 15.8031 13.5081 15.9492C13.5294 15.9565 13.544 15.9831 13.5615 16.0011H9.8112C9.80877 15.9492 9.80392 15.8977 9.80392 15.8458C9.80392 14.6375 9.8078 13.4297 9.80246 12.2215C9.79712 11.0035 8.75433 10.132 7.56687 10.345C6.6872 10.5027 6.05269 11.281 6.04929 12.222C6.04444 13.4302 6.04784 14.638 6.04881 15.8463C6.04881 15.8977 6.05706 15.9497 6.06143 16.0011H2.27962V16.0016Z" fill="white"/>
<path d="M15.9995 8.03263C15.9432 8.1059 15.8942 8.18597 15.8301 8.25099C15.4422 8.64356 15.0509 9.03273 14.6601 9.42288C14.4717 9.61067 14.3771 9.61116 14.1902 9.42433C12.1682 7.40326 10.1467 5.38218 8.12568 3.36013C8.08198 3.31646 8.05091 3.2592 7.98877 3.1738C7.92275 3.26163 7.89071 3.31694 7.84702 3.36062C5.84105 5.36811 3.83364 7.37414 1.8267 9.38066C1.60242 9.60485 1.52474 9.60436 1.30045 9.38066C0.910135 8.99052 0.519332 8.60038 0.129499 8.20975C-0.0428425 8.037 -0.0433279 7.93509 0.129014 7.76283C0.655263 7.23585 1.182 6.70935 1.70873 6.18333C1.74126 6.15082 1.77621 6.12073 1.8102 6.08919C1.91457 6.18527 2.00584 6.28523 2.11264 6.3653C2.81415 6.89034 3.80402 6.66325 4.20793 5.88296C4.36571 5.57822 4.50116 5.26232 4.65894 4.95758C4.70651 4.86587 4.78322 4.78047 4.86672 4.71835C5.08809 4.55385 5.32112 4.40585 5.54735 4.24814C6.26584 3.74688 6.39546 2.84625 5.84931 2.15816C5.83669 2.14215 5.82455 2.12565 5.80416 2.09848C5.83863 2.06111 5.87115 2.02278 5.90659 1.98687C6.5212 1.37157 7.13629 0.756752 7.75138 0.141937C7.94023 -0.0468259 8.03247 -0.0473112 8.22083 0.140482C10.7623 2.68029 13.3032 5.22011 15.8432 7.76137C15.9039 7.82252 15.9481 7.90016 16 7.97003V8.03263H15.9995Z" fill="white"/>
<path d="M15.9993 12.8127C15.8901 12.9257 15.7838 13.0417 15.6702 13.1504C15.6182 13.1999 15.5546 13.2411 15.4905 13.2737C15.0143 13.5158 14.7007 13.8928 14.5279 14.397C14.4759 14.5484 14.391 14.6882 14.3206 14.8328C14.2424 14.9929 14.1113 15.0798 13.9356 15.0793C13.7598 15.0793 13.6297 14.991 13.5521 14.8303C13.3943 14.5028 13.2423 14.1723 13.0758 13.8492C13.0287 13.7575 12.952 13.6711 12.8685 13.6099C12.6214 13.4285 12.3632 13.262 12.1107 13.0878C11.7981 12.8724 11.7995 12.5429 12.1122 12.325C12.1889 12.2716 12.2617 12.21 12.3447 12.1683C12.8535 11.9135 13.1812 11.5083 13.3661 10.9755C13.4137 10.8391 13.488 10.7115 13.553 10.5815C13.6317 10.4238 13.7574 10.3359 13.9375 10.3359C14.1176 10.3359 14.2439 10.4243 14.3211 10.5829C14.4827 10.9144 14.6376 11.2492 14.8041 11.5782C14.8439 11.6573 14.9085 11.733 14.9798 11.7849C15.2192 11.9596 15.4745 12.1129 15.7085 12.2939C15.8226 12.3822 15.9032 12.5133 15.9988 12.6249V12.8122L15.9993 12.8127Z" fill="white"/>
<path d="M6.9668 16.0003C6.97359 15.9338 6.98573 15.8673 6.98573 15.8009C6.9867 14.6144 6.98524 13.428 6.98719 12.242C6.98816 11.7723 7.2406 11.4122 7.64694 11.289C8.20086 11.1206 8.78779 11.4797 8.84217 12.0571C8.87955 12.4531 8.84945 12.8559 8.84945 13.2814C8.71643 13.2814 8.57904 13.2805 8.44117 13.2814C8.13532 13.2839 7.92851 13.4716 7.92706 13.7473C7.9256 14.0239 8.1329 14.2165 8.43583 14.2194C8.57079 14.2209 8.70575 14.2194 8.87324 14.2194V16.0003H6.9668Z" fill="white"/>
<path d="M5.24456 3.06488C5.23728 3.23424 5.16349 3.36914 5.01931 3.46716C4.70958 3.67776 4.39888 3.8869 4.094 4.1043C4.02603 4.15282 3.96632 4.22561 3.92894 4.29985C3.7498 4.65748 3.57552 5.01803 3.40706 5.38099C3.31531 5.57849 3.17598 5.70611 2.9546 5.70708C2.73323 5.70854 2.59147 5.58092 2.49972 5.38439C2.32786 5.01754 2.15261 4.65166 1.97201 4.28869C1.93706 4.21833 1.87977 4.14942 1.81569 4.1043C1.51858 3.8937 1.21516 3.69232 0.915143 3.4856C0.570944 3.24831 0.572886 2.88291 0.919026 2.64466C1.18458 2.46172 1.4477 2.27441 1.7186 2.09972C1.85938 2.00898 1.95793 1.89785 2.02687 1.74403C2.17736 1.40726 2.34388 1.07778 2.50117 0.743922C2.59341 0.54885 2.73323 0.42414 2.95849 0.427052C3.17598 0.429963 3.31191 0.550306 3.40172 0.74101C3.57455 1.10786 3.74883 1.47374 3.9304 1.83623C3.96778 1.91095 4.02943 1.98229 4.0974 2.03033C4.39839 2.24481 4.70472 2.45055 5.01057 2.65824C5.15378 2.75529 5.23437 2.88631 5.24456 3.06391V3.06488Z" fill="white"/>
<path d="M10.6704 1.215C10.7267 1.2116 10.783 1.20529 10.8394 1.20529C11.4015 1.20481 11.9637 1.20384 12.5259 1.20529C12.9113 1.20626 13.0895 1.38581 13.09 1.76916C13.0905 2.38834 13.09 3.00704 13.09 3.58546C12.3074 2.80226 11.5069 2.00159 10.7058 1.20044C10.6937 1.20529 10.6821 1.21014 10.6699 1.215H10.6704Z" fill="white"/>
</svg>
